<svg width="24" height="27" viewBox="0 0 24 27" fill="none" xmlns="http://www.w3.org/2000/svg">
<path d="M5.05736 11.0176C3.68678 11.0176 2.57357 12.1308 2.57357 13.5014C2.57357 14.872 3.68678 15.9852 5.05736 15.9852C6.42793 15.9852 7.54115 14.872 7.54115 13.5014C7.54115 12.1308 6.42793 11.0176 5.05736 11.0176ZM1.0414 21.0964H2.47781V19.2291H3.31571V21.0964H9.07332V18.1637C8.77406 17.8226 8.40299 17.5413 7.99002 17.3438C7.55312 17.1343 7.06234 17.0206 6.54165 17.0206H3.57905C3.05835 17.0206 2.56758 17.1403 2.13067 17.3438C1.71771 17.5413 1.35262 17.8226 1.04738 18.1637V21.0964H1.0414ZM11.2818 24.1847V21.9403H0V24.1847H11.2818ZM23.2459 21.9343V24.1787H24V21.9343H23.2459ZM17.2608 10.7782C15.4773 10.7782 14.0349 12.2206 14.0349 14.0041C14.0349 15.7877 15.4773 17.2301 17.2608 17.2301C19.0444 17.2301 20.4868 15.7877 20.4868 14.0041C20.4868 12.2206 19.0444 10.7782 17.2608 10.7782ZM14.1307 21.7128V21.2939H14.9686V26.0939H22.402V19.8036C22.013 19.3547 21.5282 18.9837 20.9835 18.7203C20.4209 18.451 19.7865 18.3014 19.1162 18.3014H15.3995C14.7292 18.3014 14.1007 18.451 13.5322 18.7203C12.9875 18.9777 12.5087 19.3488 12.1137 19.8036V26.0939H14.1247V21.7128H14.1307ZM19.7327 4.20661C19.6788 3.07544 19.188 1.96223 18.2843 1.14228L18.2663 1.13031C17.3626 0.322325 16.2195 -0.0487474 15.0883 0.00511795C13.9571 0.0589833 12.8439 0.549756 12.0239 1.4535L12.012 1.47145C11.2339 2.33928 10.8329 3.49439 10.8868 4.64951C10.9227 5.36771 11.1142 5.99614 11.4673 6.63654C11.6469 6.95973 12.0479 7.48642 12.3531 7.72582C12.9037 8.21659 13.5681 8.56372 14.2743 8.7313L14.5317 8.79115L14.9147 9.98816L15.4953 8.85699C16.1776 8.79115 16.6623 8.70138 17.3027 8.37819C17.7756 8.13878 18.2185 7.80961 18.5895 7.39664C19.4155 6.4929 19.7925 5.33779 19.7327 4.20661ZM10.5157 6.84602C9.7616 5.34976 9.74963 3.5722 10.4918 2.06397C9.36658 0.322325 7.16409 -0.401864 5.21895 0.32831C2.93267 1.19016 1.77157 3.74577 2.63342 6.03205C3.3217 7.87544 5.14713 9.03654 7.10424 8.8929L7.36758 8.87494L8.09776 9.8924L8.30723 8.64153C8.8818 8.39614 9.27082 8.19863 9.75561 7.75574C10.0429 7.4924 10.3002 7.18716 10.5157 6.84602ZM4.6803 3.23704H4.20748V2.29739H8.3611V3.23704H4.6803ZM4.17756 5.14626H3.70474V4.20661H7.45137V5.14626H4.17756ZM4.84788 7.04951H4.37506V6.10986H8.1217V7.04951H4.84788ZM13.4723 2.854H12.9995V1.91434H17.6199V2.854H13.4723ZM13.1611 4.75724H12.6883V3.81759H17.9252V4.75724H13.1611ZM13.4244 6.66048H12.9576V5.72083H17.6678V6.66048H13.4244Z" fill="#D6E9FF"/>
</svg>
