<svg width="600" height="900" viewBox="0 0 600 900" fill="none" xmlns="http://www.w3.org/2000/svg">
<path d="M387.825 254.745C388.83 253.395 389.235 251.745 388.995 250.08C388.755 248.43 387.87 246.96 386.535 245.97C383.745 243.9 379.815 244.485 377.745 247.26C376.905 248.385 376.515 249.69 376.515 250.995C376.515 252.915 377.385 254.82 379.05 256.05C381.825 258.105 385.77 257.52 387.825 254.745ZM378.15 257.25C374.7 254.685 373.995 249.81 376.545 246.375C378.945 243.135 383.385 242.34 386.76 244.365L562.92 3.04363e-05L564.78 3.05176e-05L387.975 245.265C389.31 246.465 390.21 248.055 390.48 249.87C390.54 250.245 390.57 250.635 390.57 251.025C390.57 252.675 390.03 254.28 389.025 255.645C386.475 259.08 381.6 259.8 378.15 257.25Z" fill="#8B8B8B" fill-opacity="0.08"/>
<path d="M396.45 207.6C398.115 207.36 399.585 206.475 400.575 205.125C402.645 202.35 402.06 198.42 399.285 196.35C397.935 195.345 396.285 194.94 394.62 195.18C392.955 195.42 391.5 196.305 390.495 197.655C389.685 198.75 389.265 200.04 389.265 201.375C389.265 201.69 389.28 202.005 389.325 202.305C389.565 203.97 390.45 205.425 391.8 206.43C393.135 207.435 394.8 207.84 396.45 207.6ZM390.9 207.63C389.235 206.4 388.14 204.585 387.84 202.53C387.54 200.475 388.05 198.42 389.295 196.755C390.525 195.09 392.34 193.995 394.395 193.695C396.195 193.425 397.98 193.83 399.525 194.745L539.46 3.04376e-05L541.29 3.05176e-05L400.74 195.615C402.42 197.13 403.32 199.26 403.32 201.405C403.32 203.01 402.81 204.63 401.79 206.025C400.545 207.69 398.73 208.785 396.675 209.085C394.62 209.385 392.565 208.875 390.9 207.63Z" fill="#8B8B8B" fill-opacity="0.08"/>
<path d="M506.64 191.97C508.71 189.195 508.125 185.25 505.35 183.195C502.56 181.125 498.63 181.71 496.56 184.485C495.72 185.61 495.33 186.915 495.33 188.22C495.33 190.14 496.2 192.045 497.865 193.275C500.64 195.33 504.585 194.745 506.64 191.97ZM496.965 194.475C493.515 191.925 492.795 187.035 495.36 183.6C497.76 180.36 502.2 179.565 505.575 181.59L600 49.2744L600 51.8702L506.805 182.46C508.485 183.975 509.37 186.09 509.37 188.235C509.37 189.855 508.875 191.475 507.84 192.87C505.29 196.305 500.415 197.025 496.965 194.475Z" fill="#8B8B8B" fill-opacity="0.08"/>
<path d="M571.635 245.76C573.3 245.505 574.77 244.635 575.76 243.285C576.765 241.935 577.185 240.285 576.93 238.635C576.69 236.97 575.805 235.5 574.47 234.51C573.12 233.505 571.47 233.085 569.805 233.34C568.14 233.58 566.685 234.465 565.68 235.8C564.855 236.925 564.45 238.245 564.45 239.535C564.45 241.455 565.32 243.36 566.985 244.59C568.32 245.58 569.985 246 571.635 245.76ZM566.085 245.79C562.635 243.24 561.915 238.35 564.48 234.915C565.71 233.25 567.525 232.155 569.58 231.855C571.38 231.585 573.165 231.99 574.695 232.905L600 197.445L600 200.055L575.91 233.805C577.245 235.005 578.145 236.595 578.415 238.41C578.475 238.8 578.505 239.175 578.505 239.565C578.505 241.215 577.98 242.82 576.96 244.185C575.73 245.85 573.915 246.93 571.86 247.245C569.805 247.545 567.75 247.035 566.085 245.79Z" fill="#8B8B8B" fill-opacity="0.08"/>
<path d="M476.235 279.96C477.885 279.705 479.355 278.835 480.345 277.485C481.35 276.135 481.77 274.485 481.515 272.82C481.275 271.17 480.405 269.7 479.055 268.71C476.28 266.64 472.335 267.225 470.265 270C469.455 271.095 469.035 272.4 469.035 273.735C469.035 274.035 469.05 274.35 469.095 274.665C469.35 276.315 470.22 277.785 471.57 278.79C472.92 279.78 474.57 280.2 476.235 279.96ZM470.67 279.99C469.005 278.745 467.925 276.93 467.625 274.875C467.31 272.835 467.82 270.78 469.065 269.115C471.465 265.875 475.905 265.08 479.295 267.105L600 99.2403L600 101.82L480.495 268.005C481.845 269.205 482.745 270.795 483 272.61C483.06 273 483.09 273.375 483.09 273.765C483.09 275.415 482.565 277.02 481.56 278.385C480.315 280.05 478.5 281.13 476.445 281.445C474.39 281.745 472.35 281.235 470.67 279.99Z" fill="#8B8B8B" fill-opacity="0.08"/>
<path d="M382.665 105.465C384.33 105.209 385.785 104.34 386.79 102.99C388.86 100.215 388.275 96.2696 385.5 94.2147C384.15 93.2093 382.485 92.7908 380.835 93.0458C379.17 93.2853 377.715 94.1708 376.71 95.5049C375.9 96.6006 375.465 97.9043 375.465 99.2403C375.465 99.5549 375.495 99.8555 375.54 100.171C375.78 101.82 376.665 103.291 378.015 104.296C379.35 105.285 381.015 105.704 382.665 105.465ZM377.115 105.495C375.45 104.25 374.355 102.449 374.055 100.395C373.755 98.3397 374.265 96.2853 375.51 94.6202C376.74 92.9403 378.555 91.8603 380.61 91.5597C382.41 91.2908 384.195 91.6799 385.725 92.6103L451.815 3.04363e-05L453.675 3.05176e-05L386.955 93.4805C388.635 94.9952 389.52 97.1103 389.52 99.2549C389.52 100.875 389.025 102.495 387.99 103.89C386.76 105.555 384.945 106.635 382.89 106.949C380.835 107.25 378.78 106.74 377.115 105.495Z" fill="#8B8B8B" fill-opacity="0.08"/>
<path d="M273.45 49.3343C275.1 49.0958 276.57 48.2093 277.575 46.8603C279.63 44.0843 279.045 40.1397 276.27 38.0843C274.92 37.0793 273.27 36.6756 271.605 36.9158C269.955 37.1543 268.485 38.0408 267.495 39.375C266.67 40.4708 266.25 41.7744 266.25 43.1103C266.25 43.4256 266.265 43.7256 266.325 44.0408C266.565 45.7043 267.435 47.1603 268.785 48.1658C270.135 49.1708 271.785 49.5744 273.45 49.3343ZM267.885 49.3653C266.22 48.1347 265.14 46.3202 264.84 44.2647C264.525 42.2093 265.05 40.1543 266.28 38.4903C267.525 36.8244 269.34 35.7305 271.395 35.4299C273.195 35.1603 274.965 35.5653 276.51 36.4805L302.55 3.04376e-05L304.38 3.05176e-05L277.725 37.3506C279.405 38.8653 280.305 40.9805 280.305 43.1397C280.305 44.7452 279.81 46.3653 278.775 47.7597C277.53 49.4256 275.715 50.5196 273.66 50.8202C271.605 51.1202 269.565 50.6103 267.885 49.3653Z" fill="#8B8B8B" fill-opacity="0.08"/>
<path d="M308.415 155.37C310.08 155.13 311.535 154.245 312.54 152.895C314.61 150.12 314.025 146.176 311.25 144.12C309.9 143.115 308.235 142.695 306.585 142.949C304.92 143.19 303.465 144.074 302.46 145.41C301.65 146.505 301.215 147.81 301.215 149.145C301.215 149.459 301.245 149.76 301.29 150.075C301.53 151.74 302.415 153.195 303.75 154.2C305.1 155.205 306.765 155.61 308.415 155.37ZM302.865 155.4C301.2 154.17 300.105 152.355 299.805 150.3C299.505 148.245 300.015 146.19 301.26 144.524C302.49 142.86 304.305 141.765 306.36 141.465C308.16 141.195 309.945 141.601 311.475 142.515L413.955 3.04363e-05L415.815 3.05176e-05L312.705 143.385C314.385 144.899 315.27 147.015 315.27 149.176C315.27 150.78 314.775 152.4 313.74 153.795C312.51 155.46 310.695 156.555 308.64 156.855C306.585 157.155 304.53 156.645 302.865 155.4Z" fill="#8B8B8B" fill-opacity="0.08"/>
<path d="M273.525 161.13C275.58 158.355 274.995 154.41 272.22 152.355C269.445 150.285 265.5 150.87 263.445 153.645C261.375 156.42 261.96 160.365 264.735 162.435C267.51 164.49 271.455 163.905 273.525 161.13ZM263.85 163.635C260.4 161.07 259.68 156.195 262.23 152.745C264.63 149.52 269.07 148.726 272.46 150.75L381.09 3.04369e-05L382.935 3.05176e-05L273.69 151.62C275.37 153.135 276.255 155.25 276.255 157.395C276.255 159.015 275.76 160.635 274.725 162.03C272.175 165.465 267.285 166.185 263.85 163.635Z" fill="#8B8B8B" fill-opacity="0.08"/>
<path d="M444.315 237.6C446.385 234.825 445.8 230.88 443.025 228.825C441.675 227.82 440.01 227.4 438.36 227.655C436.695 227.895 435.24 228.78 434.235 230.115C433.395 231.24 433.005 232.56 433.005 233.85C433.005 235.77 433.875 237.675 435.54 238.905C438.315 240.96 442.26 240.39 444.315 237.6ZM434.64 240.105C431.19 237.555 430.47 232.665 433.035 229.23C434.265 227.565 436.08 226.47 438.135 226.17L438.15 226.17L437.295 208.665L587.07 3.04363e-05L588.93 3.05176e-05L438.825 209.115L439.65 226.095C441.18 226.17 442.65 226.68 443.91 227.625C445.965 229.14 447.045 231.495 447.045 233.865C447.045 235.485 446.55 237.105 445.515 238.5C442.965 241.935 438.09 242.67 434.64 240.105Z" fill="#8B8B8B" fill-opacity="0.08"/>
<path d="M435.465 296.685C437.535 293.91 436.95 289.965 434.175 287.895C431.385 285.84 427.455 286.41 425.385 289.2C424.575 290.295 424.155 291.585 424.155 292.92C424.155 293.235 424.17 293.55 424.215 293.85C424.455 295.515 425.34 296.985 426.69 297.975C429.465 300.045 433.41 299.46 435.465 296.685ZM425.79 299.19C424.125 297.945 423.03 296.13 422.73 294.075C422.43 292.02 422.94 289.965 424.185 288.3C426.585 285.06 431.025 284.265 434.415 286.305L478.86 226.44L473.46 189.885L473.415 189.585L600 12.6609L600 15.2403L474.99 189.96L480.435 226.83L435.645 287.175C437.31 288.69 438.195 290.805 438.195 292.95C438.195 294.555 437.7 296.19 436.68 297.57C434.115 301.02 429.24 301.74 425.79 299.19Z" fill="#8B8B8B" fill-opacity="0.08"/>
<path d="M496.125 341.715C498.195 338.94 497.61 334.995 494.835 332.925C492.045 330.87 488.115 331.455 486.045 334.23C485.235 335.325 484.8 336.615 484.8 337.965C484.8 338.265 484.83 338.58 484.875 338.895C485.115 340.545 486 342.015 487.35 343.005C490.125 345.075 494.055 344.49 496.125 341.715ZM486.45 344.22C484.785 342.975 483.69 341.16 483.39 339.105C483.09 337.05 483.6 335.01 484.845 333.33C487.245 330.105 491.685 329.31 495.075 331.335L539.52 271.47L534.12 234.915L534.075 234.615L600 142.471L600 145.051L535.65 234.99L541.095 271.875L496.29 332.205C497.97 333.72 498.855 335.835 498.855 337.98C498.855 339.6 498.36 341.22 497.325 342.615C494.775 346.05 489.885 346.77 486.45 344.22Z" fill="#8B8B8B" fill-opacity="0.08"/>
<path d="M370.92 183.12C372.99 180.33 372.405 176.4 369.63 174.33C368.28 173.325 366.615 172.92 364.965 173.16C363.3 173.4 361.845 174.285 360.84 175.635C360 176.745 359.61 178.065 359.61 179.37C359.61 181.29 360.48 183.18 362.13 184.41C364.92 186.48 368.85 185.895 370.92 183.12ZM361.245 185.61C357.795 183.06 357.075 178.17 359.64 174.735C360.87 173.07 362.685 171.975 364.74 171.675C366.795 171.375 368.85 171.885 370.515 173.13C371.805 174.075 372.705 175.365 373.2 176.775L389.685 172.65L513.63 3.04369e-05L515.475 3.05176e-05L390.75 173.745L390.585 173.97L373.56 178.23C373.62 178.605 373.65 178.995 373.65 179.385C373.65 180.99 373.155 182.625 372.12 184.005C369.57 187.455 364.68 188.175 361.245 185.61Z" fill="#8B8B8B" fill-opacity="0.08"/>
<path d="M270.075 96.6603C271.065 95.3097 271.485 93.6603 271.245 91.9952C270.99 90.3458 270.12 88.875 268.77 87.8702C267.42 86.8799 265.77 86.4593 264.105 86.6994C262.455 86.9543 260.985 87.8244 259.995 89.1756C259.155 90.3006 258.75 91.6055 258.75 92.9103C258.75 94.8293 259.635 96.7208 261.285 97.9494C264.06 100.02 268.005 99.4347 270.075 96.6603ZM260.385 99.1658C256.95 96.6006 256.23 91.7256 258.78 88.2744C260.025 86.6103 261.84 85.5293 263.895 85.2147C265.95 84.9158 267.99 85.4256 269.67 86.6708C270.93 87.6006 271.845 88.875 272.355 90.3153L288.84 86.1903L350.715 3.04369e-05L352.56 3.05176e-05L289.89 87.3006L289.74 87.5097L272.715 91.7696C272.775 92.1603 272.805 92.5506 272.805 92.9256C272.805 94.5897 272.28 96.1952 271.275 97.5458C268.71 100.995 263.835 101.715 260.385 99.1658Z" fill="#8B8B8B" fill-opacity="0.08"/>
<path d="M307.215 206.985C308.865 206.745 310.335 205.86 311.325 204.525C313.395 201.735 312.81 197.805 310.035 195.735C308.685 194.73 307.035 194.325 305.37 194.565C303.72 194.805 302.25 195.69 301.245 197.04C300.435 198.135 300.015 199.425 300.015 200.76C300.015 201.075 300.03 201.39 300.075 201.69C300.33 203.355 301.2 204.81 302.55 205.815C303.9 206.82 305.55 207.225 307.215 206.985ZM301.65 207.015C299.985 205.785 298.905 203.97 298.59 201.915C298.29 199.875 298.8 197.805 300.045 196.14C301.29 194.475 303.09 193.38 305.145 193.08C306.96 192.81 308.745 193.215 310.275 194.145L354.045 135.195L392.535 128.774L484.665 3.0437e-05L486.51 3.05176e-05L393.57 129.899L393.39 130.14L354.885 136.574L311.505 195.015C313.17 196.53 314.07 198.645 314.07 200.79C314.07 202.395 313.56 204.015 312.54 205.41C311.295 207.075 309.48 208.17 307.425 208.47C305.37 208.77 303.315 208.26 301.65 207.015Z" fill="#8B8B8B" fill-opacity="0.08"/>
<path d="M387.825 254.745C388.83 253.395 389.235 251.745 388.995 250.08C388.755 248.43 387.87 246.96 386.535 245.97C383.745 243.9 379.815 244.485 377.745 247.26C376.905 248.385 376.515 249.69 376.515 250.995C376.515 252.915 377.385 254.82 379.05 256.05C381.825 258.105 385.77 257.52 387.825 254.745ZM378.15 257.25C374.7 254.685 373.995 249.81 376.545 246.375C378.945 243.135 383.385 242.34 386.76 244.365L562.92 3.04363e-05L564.78 3.05176e-05L387.975 245.265C389.31 246.465 390.21 248.055 390.48 249.87C390.54 250.245 390.57 250.635 390.57 251.025C390.57 252.675 390.03 254.28 389.025 255.645C386.475 259.08 381.6 259.8 378.15 257.25Z" fill="#8B8B8B" fill-opacity="0.08"/>
<path d="M396.45 207.6C398.115 207.36 399.585 206.475 400.575 205.125C402.645 202.35 402.06 198.42 399.285 196.35C397.935 195.345 396.285 194.94 394.62 195.18C392.955 195.42 391.5 196.305 390.495 197.655C389.685 198.75 389.265 200.04 389.265 201.375C389.265 201.69 389.28 202.005 389.325 202.305C389.565 203.97 390.45 205.425 391.8 206.43C393.135 207.435 394.8 207.84 396.45 207.6ZM390.9 207.63C389.235 206.4 388.14 204.585 387.84 202.53C387.54 200.475 388.05 198.42 389.295 196.755C390.525 195.09 392.34 193.995 394.395 193.695C396.195 193.425 397.98 193.83 399.525 194.745L539.46 3.04376e-05L541.29 3.05176e-05L400.74 195.615C402.42 197.13 403.32 199.26 403.32 201.405C403.32 203.01 402.81 204.63 401.79 206.025C400.545 207.69 398.73 208.785 396.675 209.085C394.62 209.385 392.565 208.875 390.9 207.63Z" fill="#8B8B8B" fill-opacity="0.08"/>
<path d="M506.64 191.97C508.71 189.195 508.125 185.25 505.35 183.195C502.56 181.125 498.63 181.71 496.56 184.485C495.72 185.61 495.33 186.915 495.33 188.22C495.33 190.14 496.2 192.045 497.865 193.275C500.64 195.33 504.585 194.745 506.64 191.97ZM496.965 194.475C493.515 191.925 492.795 187.035 495.36 183.6C497.76 180.36 502.2 179.565 505.575 181.59L600 49.2744L600 51.8702L506.805 182.46C508.485 183.975 509.37 186.09 509.37 188.235C509.37 189.855 508.875 191.475 507.84 192.87C505.29 196.305 500.415 197.025 496.965 194.475Z" fill="#8B8B8B" fill-opacity="0.08"/>
<path d="M571.635 245.76C573.3 245.505 574.77 244.635 575.76 243.285C576.765 241.935 577.185 240.285 576.93 238.635C576.69 236.97 575.805 235.5 574.47 234.51C573.12 233.505 571.47 233.085 569.805 233.34C568.14 233.58 566.685 234.465 565.68 235.8C564.855 236.925 564.45 238.245 564.45 239.535C564.45 241.455 565.32 243.36 566.985 244.59C568.32 245.58 569.985 246 571.635 245.76ZM566.085 245.79C562.635 243.24 561.915 238.35 564.48 234.915C565.71 233.25 567.525 232.155 569.58 231.855C571.38 231.585 573.165 231.99 574.695 232.905L600 197.445L600 200.055L575.91 233.805C577.245 235.005 578.145 236.595 578.415 238.41C578.475 238.8 578.505 239.175 578.505 239.565C578.505 241.215 577.98 242.82 576.96 244.185C575.73 245.85 573.915 246.93 571.86 247.245C569.805 247.545 567.75 247.035 566.085 245.79Z" fill="#8B8B8B" fill-opacity="0.08"/>
<path d="M476.235 279.96C477.885 279.705 479.355 278.835 480.345 277.485C481.35 276.135 481.77 274.485 481.515 272.82C481.275 271.17 480.405 269.7 479.055 268.71C476.28 266.64 472.335 267.225 470.265 270C469.455 271.095 469.035 272.4 469.035 273.735C469.035 274.035 469.05 274.35 469.095 274.665C469.35 276.315 470.22 277.785 471.57 278.79C472.92 279.78 474.57 280.2 476.235 279.96ZM470.67 279.99C469.005 278.745 467.925 276.93 467.625 274.875C467.31 272.835 467.82 270.78 469.065 269.115C471.465 265.875 475.905 265.08 479.295 267.105L600 99.2403L600 101.82L480.495 268.005C481.845 269.205 482.745 270.795 483 272.61C483.06 273 483.09 273.375 483.09 273.765C483.09 275.415 482.565 277.02 481.56 278.385C480.315 280.05 478.5 281.13 476.445 281.445C474.39 281.745 472.35 281.235 470.67 279.99Z" fill="#8B8B8B" fill-opacity="0.08"/>
<path d="M382.665 105.465C384.33 105.209 385.785 104.34 386.79 102.99C388.86 100.215 388.275 96.2696 385.5 94.2147C384.15 93.2093 382.485 92.7908 380.835 93.0458C379.17 93.2853 377.715 94.1708 376.71 95.5049C375.9 96.6006 375.465 97.9043 375.465 99.2403C375.465 99.5549 375.495 99.8555 375.54 100.171C375.78 101.82 376.665 103.291 378.015 104.296C379.35 105.285 381.015 105.704 382.665 105.465ZM377.115 105.495C375.45 104.25 374.355 102.449 374.055 100.395C373.755 98.3397 374.265 96.2853 375.51 94.6202C376.74 92.9403 378.555 91.8603 380.61 91.5597C382.41 91.2908 384.195 91.6799 385.725 92.6103L451.815 3.04363e-05L453.675 3.05176e-05L386.955 93.4805C388.635 94.9952 389.52 97.1103 389.52 99.2549C389.52 100.875 389.025 102.495 387.99 103.89C386.76 105.555 384.945 106.635 382.89 106.949C380.835 107.25 378.78 106.74 377.115 105.495Z" fill="#8B8B8B" fill-opacity="0.08"/>
<path d="M273.45 49.3343C275.1 49.0958 276.57 48.2093 277.575 46.8603C279.63 44.0843 279.045 40.1397 276.27 38.0843C274.92 37.0793 273.27 36.6756 271.605 36.9158C269.955 37.1543 268.485 38.0408 267.495 39.375C266.67 40.4708 266.25 41.7744 266.25 43.1103C266.25 43.4256 266.265 43.7256 266.325 44.0408C266.565 45.7043 267.435 47.1603 268.785 48.1658C270.135 49.1708 271.785 49.5744 273.45 49.3343ZM267.885 49.3653C266.22 48.1347 265.14 46.3202 264.84 44.2647C264.525 42.2093 265.05 40.1543 266.28 38.4903C267.525 36.8244 269.34 35.7305 271.395 35.4299C273.195 35.1603 274.965 35.5653 276.51 36.4805L302.55 3.04376e-05L304.38 3.05176e-05L277.725 37.3506C279.405 38.8653 280.305 40.9805 280.305 43.1397C280.305 44.7452 279.81 46.3653 278.775 47.7597C277.53 49.4256 275.715 50.5196 273.66 50.8202C271.605 51.1202 269.565 50.6103 267.885 49.3653Z" fill="#8B8B8B" fill-opacity="0.08"/>
<path d="M308.415 155.37C310.08 155.13 311.535 154.245 312.54 152.895C314.61 150.12 314.025 146.176 311.25 144.12C309.9 143.115 308.235 142.695 306.585 142.949C304.92 143.19 303.465 144.074 302.46 145.41C301.65 146.505 301.215 147.81 301.215 149.145C301.215 149.459 301.245 149.76 301.29 150.075C301.53 151.74 302.415 153.195 303.75 154.2C305.1 155.205 306.765 155.61 308.415 155.37ZM302.865 155.4C301.2 154.17 300.105 152.355 299.805 150.3C299.505 148.245 300.015 146.19 301.26 144.524C302.49 142.86 304.305 141.765 306.36 141.465C308.16 141.195 309.945 141.601 311.475 142.515L413.955 3.04363e-05L415.815 3.05176e-05L312.705 143.385C314.385 144.899 315.27 147.015 315.27 149.176C315.27 150.78 314.775 152.4 313.74 153.795C312.51 155.46 310.695 156.555 308.64 156.855C306.585 157.155 304.53 156.645 302.865 155.4Z" fill="#8B8B8B" fill-opacity="0.08"/>
<path d="M273.525 161.13C275.58 158.355 274.995 154.41 272.22 152.355C269.445 150.285 265.5 150.87 263.445 153.645C261.375 156.42 261.96 160.365 264.735 162.435C267.51 164.49 271.455 163.905 273.525 161.13ZM263.85 163.635C260.4 161.07 259.68 156.195 262.23 152.745C264.63 149.52 269.07 148.726 272.46 150.75L381.09 3.04369e-05L382.935 3.05176e-05L273.69 151.62C275.37 153.135 276.255 155.25 276.255 157.395C276.255 159.015 275.76 160.635 274.725 162.03C272.175 165.465 267.285 166.185 263.85 163.635Z" fill="#8B8B8B" fill-opacity="0.08"/>
<path d="M224.325 76.9647C226.38 74.1903 225.795 70.2452 223.02 68.1903C220.245 66.1202 216.3 66.7043 214.245 69.4805C212.175 72.2549 212.76 76.1994 215.535 78.2696C218.31 80.3244 222.255 79.7403 224.325 76.9647ZM214.65 79.4708C211.2 76.9043 210.48 72.0293 213.03 68.5793C215.43 65.3555 219.87 64.5597 223.26 66.5843L271.245 3.04369e-05L273.09 3.05176e-05L224.49 67.4543C226.17 68.9708 227.055 71.0843 227.055 73.2305C227.055 74.8506 226.56 76.4708 225.525 77.8653C222.975 81.3006 218.085 82.0196 214.65 79.4708Z" fill="#8B8B8B" fill-opacity="0.08"/>
<path d="M444.315 237.6C446.385 234.825 445.8 230.88 443.025 228.825C441.675 227.82 440.01 227.4 438.36 227.655C436.695 227.895 435.24 228.78 434.235 230.115C433.395 231.24 433.005 232.56 433.005 233.85C433.005 235.77 433.875 237.675 435.54 238.905C438.315 240.96 442.26 240.39 444.315 237.6ZM434.64 240.105C431.19 237.555 430.47 232.665 433.035 229.23C434.265 227.565 436.08 226.47 438.135 226.17L438.15 226.17L437.295 208.665L587.07 3.04363e-05L588.93 3.05176e-05L438.825 209.115L439.65 226.095C441.18 226.17 442.65 226.68 443.91 227.625C445.965 229.14 447.045 231.495 447.045 233.865C447.045 235.485 446.55 237.105 445.515 238.5C442.965 241.935 438.09 242.67 434.64 240.105Z" fill="#8B8B8B" fill-opacity="0.08"/>
<path d="M435.465 296.685C437.535 293.91 436.95 289.965 434.175 287.895C431.385 285.84 427.455 286.41 425.385 289.2C424.575 290.295 424.155 291.585 424.155 292.92C424.155 293.235 424.17 293.55 424.215 293.85C424.455 295.515 425.34 296.985 426.69 297.975C429.465 300.045 433.41 299.46 435.465 296.685ZM425.79 299.19C424.125 297.945 423.03 296.13 422.73 294.075C422.43 292.02 422.94 289.965 424.185 288.3C426.585 285.06 431.025 284.265 434.415 286.305L478.86 226.44L473.46 189.885L473.415 189.585L600 12.6609L600 15.2403L474.99 189.96L480.435 226.83L435.645 287.175C437.31 288.69 438.195 290.805 438.195 292.95C438.195 294.555 437.7 296.19 436.68 297.57C434.115 301.02 429.24 301.74 425.79 299.19Z" fill="#8B8B8B" fill-opacity="0.08"/>
<path d="M496.125 341.715C498.195 338.94 497.61 334.995 494.835 332.925C492.045 330.87 488.115 331.455 486.045 334.23C485.235 335.325 484.8 336.615 484.8 337.965C484.8 338.265 484.83 338.58 484.875 338.895C485.115 340.545 486 342.015 487.35 343.005C490.125 345.075 494.055 344.49 496.125 341.715ZM486.45 344.22C484.785 342.975 483.69 341.16 483.39 339.105C483.09 337.05 483.6 335.01 484.845 333.33C487.245 330.105 491.685 329.31 495.075 331.335L539.52 271.47L534.12 234.915L534.075 234.615L600 142.471L600 145.051L535.65 234.99L541.095 271.875L496.29 332.205C497.97 333.72 498.855 335.835 498.855 337.98C498.855 339.6 498.36 341.22 497.325 342.615C494.775 346.05 489.885 346.77 486.45 344.22Z" fill="#8B8B8B" fill-opacity="0.08"/>
<path d="M370.92 183.12C372.99 180.33 372.405 176.4 369.63 174.33C368.28 173.325 366.615 172.92 364.965 173.16C363.3 173.4 361.845 174.285 360.84 175.635C360 176.745 359.61 178.065 359.61 179.37C359.61 181.29 360.48 183.18 362.13 184.41C364.92 186.48 368.85 185.895 370.92 183.12ZM361.245 185.61C357.795 183.06 357.075 178.17 359.64 174.735C360.87 173.07 362.685 171.975 364.74 171.675C366.795 171.375 368.85 171.885 370.515 173.13C371.805 174.075 372.705 175.365 373.2 176.775L389.685 172.65L513.63 3.04369e-05L515.475 3.05176e-05L390.75 173.745L390.585 173.97L373.56 178.23C373.62 178.605 373.65 178.995 373.65 179.385C373.65 180.99 373.155 182.625 372.12 184.005C369.57 187.455 364.68 188.175 361.245 185.61Z" fill="#8B8B8B" fill-opacity="0.08"/>
<path d="M270.075 96.6603C271.065 95.3097 271.485 93.6603 271.245 91.9952C270.99 90.3458 270.12 88.875 268.77 87.8702C267.42 86.8799 265.77 86.4593 264.105 86.6994C262.455 86.9543 260.985 87.8244 259.995 89.1756C259.155 90.3006 258.75 91.6055 258.75 92.9103C258.75 94.8293 259.635 96.7208 261.285 97.9494C264.06 100.02 268.005 99.4347 270.075 96.6603ZM260.385 99.1658C256.95 96.6006 256.23 91.7256 258.78 88.2744C260.025 86.6103 261.84 85.5293 263.895 85.2147C265.95 84.9158 267.99 85.4256 269.67 86.6708C270.93 87.6006 271.845 88.875 272.355 90.3153L288.84 86.1903L350.715 3.04369e-05L352.56 3.05176e-05L289.89 87.3006L289.74 87.5097L272.715 91.7696C272.775 92.1603 272.805 92.5506 272.805 92.9256C272.805 94.5897 272.28 96.1952 271.275 97.5458C268.71 100.995 263.835 101.715 260.385 99.1658Z" fill="#8B8B8B" fill-opacity="0.08"/>
<path d="M202.515 36.6603C203.505 35.3097 203.925 33.6603 203.685 31.9952C203.43 30.3458 202.56 28.875 201.21 27.8702C199.86 26.8799 198.21 26.4593 196.545 26.6994C194.895 26.9543 193.425 27.8244 192.435 29.1756C191.595 30.3006 191.19 31.6055 191.19 32.9103C191.19 34.8293 192.075 36.7208 193.725 37.9494C196.5 40.0196 200.445 39.4347 202.515 36.6603ZM192.825 39.1658C189.39 36.6006 188.67 31.7256 191.22 28.2744C192.465 26.6103 194.28 25.5293 196.335 25.2147C198.39 24.9158 200.43 25.4256 202.11 26.6708C203.37 27.6006 204.285 28.875 204.795 30.3153L221.28 26.1903L240.075 3.04363e-05L241.935 3.05176e-05L222.33 27.3006L222.18 27.5097L205.155 31.7696C205.215 32.1603 205.245 32.5506 205.245 32.9256C205.245 34.5897 204.72 36.1952 203.715 37.5458C201.15 40.9952 196.275 41.7147 192.825 39.1658Z" fill="#8B8B8B" fill-opacity="0.08"/>
<path d="M583.62 327.465C585.675 324.69 585.09 320.745 582.315 318.69C579.54 316.62 575.595 317.205 573.54 319.98C571.47 322.755 572.055 326.7 574.83 328.77C577.605 330.825 581.55 330.24 583.62 327.465ZM573.945 329.97C570.495 327.405 569.775 322.53 572.325 319.08C574.725 315.855 579.165 315.06 582.555 317.085L600 292.875L600 295.455L583.785 317.955C585.465 319.47 586.35 321.585 586.35 323.73C586.35 325.35 585.855 326.97 584.82 328.365C582.27 331.8 577.38 332.52 573.945 329.97Z" fill="#8B8B8B" fill-opacity="0.08"/>
<path d="M591.825 378.63C593.88 375.855 593.295 371.91 590.52 369.855C587.745 367.785 583.8 368.37 581.745 371.145C579.675 373.92 580.26 377.865 583.035 379.935C585.81 381.99 589.755 381.405 591.825 378.63ZM582.15 381.135C578.7 378.57 577.98 373.695 580.53 370.245C582.93 367.02 587.37 366.225 590.76 368.25L600 355.425L600 358.005L591.99 369.12C593.67 370.635 594.555 372.75 594.555 374.895C594.555 376.515 594.06 378.135 593.025 379.53C590.475 382.965 585.585 383.685 582.15 381.135Z" fill="#8B8B8B" fill-opacity="0.08"/>
<path d="M561.825 287.16C562.815 285.81 563.235 284.16 562.995 282.495C562.74 280.845 561.87 279.375 560.52 278.37C559.17 277.38 557.52 276.96 555.855 277.2C554.205 277.455 552.735 278.325 551.745 279.675C550.905 280.8 550.5 282.105 550.5 283.41C550.5 285.33 551.385 287.22 553.035 288.45C555.81 290.52 559.755 289.935 561.825 287.16ZM552.135 289.665C548.7 287.1 547.98 282.225 550.53 278.775C551.775 277.11 553.59 276.03 555.645 275.715C557.7 275.415 559.74 275.925 561.42 277.17C562.68 278.1 563.595 279.375 564.105 280.815L580.59 276.69L600 249.645L600 252.225L581.64 277.8L581.49 278.01L564.465 282.27C564.525 282.66 564.555 283.05 564.555 283.425C564.555 285.09 564.03 286.695 563.025 288.045C560.46 291.495 555.585 292.215 552.135 289.665Z" fill="#8B8B8B" fill-opacity="0.08"/>
<path d="M307.215 206.985C308.865 206.745 310.335 205.86 311.325 204.525C313.395 201.735 312.81 197.805 310.035 195.735C308.685 194.73 307.035 194.325 305.37 194.565C303.72 194.805 302.25 195.69 301.245 197.04C300.435 198.135 300.015 199.425 300.015 200.76C300.015 201.075 300.03 201.39 300.075 201.69C300.33 203.355 301.2 204.81 302.55 205.815C303.9 206.82 305.55 207.225 307.215 206.985ZM301.65 207.015C299.985 205.785 298.905 203.97 298.59 201.915C298.29 199.875 298.8 197.805 300.045 196.14C301.29 194.475 303.09 193.38 305.145 193.08C306.96 192.81 308.745 193.215 310.275 194.145L354.045 135.195L392.535 128.774L484.665 3.0437e-05L486.51 3.05176e-05L393.57 129.899L393.39 130.14L354.885 136.574L311.505 195.015C313.17 196.53 314.07 198.645 314.07 200.79C314.07 202.395 313.56 204.015 312.54 205.41C311.295 207.075 309.48 208.17 307.425 208.47C305.37 208.77 303.315 208.26 301.65 207.015Z" fill="#8B8B8B" fill-opacity="0.08"/>
<path d="M212.175 645.255C211.17 646.605 210.765 648.255 211.005 649.92C211.245 651.57 212.13 653.04 213.465 654.03C216.255 656.1 220.185 655.515 222.255 652.74C223.095 651.615 223.485 650.31 223.485 649.005C223.485 647.085 222.615 645.18 220.95 643.95C218.175 641.895 214.23 642.48 212.175 645.255ZM221.85 642.75C225.3 645.315 226.005 650.19 223.455 653.625C221.055 656.865 216.615 657.66 213.24 655.635L37.0799 900L35.22 900L212.025 654.735C210.69 653.535 209.79 651.945 209.52 650.13C209.46 649.755 209.43 649.365 209.43 648.975C209.43 647.325 209.97 645.72 210.975 644.355C213.525 640.92 218.4 640.2 221.85 642.75Z" fill="#8B8B8B" fill-opacity="0.08"/>
<path d="M203.55 692.4C201.885 692.64 200.415 693.525 199.425 694.875C197.355 697.65 197.94 701.58 200.715 703.65C202.065 704.655 203.715 705.06 205.38 704.82C207.045 704.58 208.5 703.695 209.505 702.345C210.315 701.25 210.735 699.96 210.735 698.625C210.735 698.31 210.72 697.995 210.675 697.695C210.435 696.03 209.55 694.575 208.2 693.57C206.865 692.565 205.2 692.16 203.55 692.4ZM209.1 692.37C210.765 693.6 211.86 695.415 212.16 697.47C212.46 699.525 211.95 701.58 210.705 703.245C209.475 704.91 207.66 706.005 205.605 706.305C203.805 706.575 202.02 706.17 200.475 705.255L60.5401 900L58.7101 900L199.26 704.385C197.58 702.87 196.68 700.74 196.68 698.595C196.68 696.99 197.19 695.37 198.21 693.975C199.455 692.31 201.27 691.215 203.325 690.915C205.38 690.615 207.435 691.125 209.1 692.37Z" fill="#8B8B8B" fill-opacity="0.08"/>
<path d="M93.3601 708.03C91.2901 710.805 91.8751 714.75 94.6501 716.805C97.4401 718.875 101.37 718.29 103.44 715.515C104.28 714.39 104.67 713.085 104.67 711.78C104.67 709.86 103.8 707.955 102.135 706.725C99.3601 704.67 95.4151 705.255 93.3601 708.03ZM103.035 705.525C106.485 708.075 107.205 712.965 104.64 716.4C102.24 719.64 97.8001 720.435 94.4251 718.41L0.000108386 850.725L0.000108499 848.13L93.1951 717.54C91.5151 716.025 90.6301 713.91 90.6301 711.765C90.6301 710.145 91.1251 708.525 92.1601 707.13C94.7101 703.695 99.5851 702.975 103.035 705.525Z" fill="#8B8B8B" fill-opacity="0.08"/>
<path d="M28.365 654.24C26.7 654.495 25.23 655.365 24.24 656.715C23.235 658.065 22.815 659.715 23.07 661.365C23.31 663.03 24.195 664.5 25.53 665.49C26.88 666.495 28.53 666.915 30.195 666.66C31.86 666.42 33.315 665.535 34.32 664.2C35.145 663.075 35.55 661.755 35.55 660.465C35.55 658.545 34.68 656.64 33.015 655.41C31.68 654.42 30.015 654 28.365 654.24ZM33.915 654.21C37.365 656.76 38.085 661.65 35.52 665.085C34.29 666.75 32.475 667.845 30.42 668.145C28.62 668.415 26.835 668.01 25.305 667.095L-9.127e-06 702.555L-9.01291e-06 699.945L24.09 666.195C22.755 664.995 21.855 663.405 21.585 661.59C21.525 661.2 21.495 660.825 21.495 660.435C21.495 658.785 22.02 657.18 23.04 655.815C24.27 654.15 26.085 653.07 28.14 652.755C30.195 652.455 32.25 652.965 33.915 654.21Z" fill="#8B8B8B" fill-opacity="0.08"/>
<path d="M123.765 620.04C122.115 620.295 120.645 621.165 119.655 622.515C118.65 623.865 118.23 625.515 118.485 627.18C118.725 628.83 119.595 630.3 120.945 631.29C123.72 633.36 127.665 632.775 129.735 630C130.545 628.905 130.965 627.6 130.965 626.265C130.965 625.965 130.95 625.65 130.905 625.335C130.65 623.685 129.78 622.215 128.43 621.21C127.08 620.22 125.43 619.8 123.765 620.04ZM129.33 620.01C130.995 621.255 132.075 623.07 132.375 625.125C132.69 627.165 132.18 629.22 130.935 630.885C128.535 634.125 124.095 634.92 120.705 632.895L1.63335e-05 800.76L1.64463e-05 798.18L119.505 631.995C118.155 630.795 117.255 629.205 117 627.39C116.94 627 116.91 626.625 116.91 626.235C116.91 624.585 117.435 622.98 118.44 621.615C119.685 619.95 121.5 618.87 123.555 618.555C125.61 618.255 127.65 618.765 129.33 620.01Z" fill="#8B8B8B" fill-opacity="0.08"/>
<path d="M217.335 794.535C215.67 794.79 214.215 795.66 213.21 797.01C211.14 799.785 211.725 803.73 214.5 805.785C215.85 806.79 217.515 807.21 219.165 806.955C220.83 806.715 222.285 805.83 223.29 804.495C224.1 803.4 224.535 802.095 224.535 800.76C224.535 800.445 224.505 800.145 224.46 799.83C224.22 798.18 223.335 796.71 221.985 795.705C220.65 794.715 218.985 794.295 217.335 794.535ZM222.885 794.505C224.55 795.75 225.645 797.55 225.945 799.605C226.245 801.66 225.735 803.715 224.49 805.38C223.26 807.06 221.445 808.14 219.39 808.44C217.59 808.71 215.805 808.32 214.275 807.39L148.185 900L146.325 900L213.045 806.52C211.365 805.005 210.48 802.89 210.48 800.745C210.48 799.125 210.975 797.505 212.01 796.11C213.24 794.445 215.055 793.365 217.11 793.05C219.165 792.75 221.22 793.26 222.885 794.505Z" fill="#8B8B8B" fill-opacity="0.08"/>
<path d="M326.55 850.665C324.9 850.905 323.43 851.79 322.425 853.14C320.37 855.915 320.955 859.86 323.73 861.915C325.08 862.92 326.73 863.325 328.395 863.085C330.045 862.845 331.515 861.96 332.505 860.625C333.33 859.53 333.75 858.225 333.75 856.89C333.75 856.575 333.735 856.275 333.675 855.96C333.435 854.295 332.565 852.84 331.215 851.835C329.865 850.83 328.215 850.425 326.55 850.665ZM332.115 850.635C333.78 851.865 334.86 853.68 335.16 855.735C335.475 857.79 334.95 859.845 333.72 861.51C332.475 863.175 330.66 864.27 328.605 864.57C326.805 864.84 325.035 864.435 323.49 863.52L297.45 900L295.62 900L322.275 862.65C320.595 861.135 319.695 859.02 319.695 856.86C319.695 855.255 320.19 853.635 321.225 852.24C322.47 850.575 324.285 849.48 326.34 849.18C328.395 848.88 330.435 849.39 332.115 850.635Z" fill="#8B8B8B" fill-opacity="0.08"/>
<path d="M291.585 744.63C289.92 744.87 288.465 745.755 287.46 747.105C285.39 749.88 285.975 753.825 288.75 755.88C290.1 756.885 291.765 757.305 293.415 757.05C295.08 756.81 296.535 755.925 297.54 754.59C298.35 753.495 298.785 752.19 298.785 750.855C298.785 750.54 298.755 750.24 298.71 749.925C298.47 748.26 297.585 746.805 296.25 745.8C294.9 744.795 293.235 744.39 291.585 744.63ZM297.135 744.6C298.8 745.83 299.895 747.645 300.195 749.7C300.495 751.755 299.985 753.81 298.74 755.475C297.51 757.14 295.695 758.235 293.64 758.535C291.84 758.805 290.055 758.4 288.525 757.485L186.045 900L184.185 900L287.295 756.615C285.615 755.1 284.73 752.985 284.73 750.825C284.73 749.22 285.225 747.6 286.26 746.205C287.49 744.54 289.305 743.445 291.36 743.145C293.415 742.845 295.47 743.355 297.135 744.6Z" fill="#8B8B8B" fill-opacity="0.08"/>
<path d="M326.475 738.87C324.42 741.645 325.005 745.59 327.78 747.645C330.555 749.715 334.5 749.13 336.555 746.355C338.625 743.58 338.04 739.635 335.265 737.565C332.49 735.51 328.545 736.095 326.475 738.87ZM336.15 736.365C339.6 738.93 340.32 743.805 337.77 747.255C335.37 750.48 330.93 751.275 327.54 749.25L218.91 900L217.065 900L326.31 748.38C324.63 746.865 323.745 744.75 323.745 742.605C323.745 740.985 324.24 739.365 325.275 737.97C327.825 734.535 332.715 733.815 336.15 736.365Z" fill="#8B8B8B" fill-opacity="0.08"/>
<path d="M155.685 662.4C153.615 665.175 154.2 669.12 156.975 671.175C158.325 672.18 159.99 672.6 161.64 672.345C163.305 672.105 164.76 671.22 165.765 669.885C166.605 668.76 166.995 667.44 166.995 666.15C166.995 664.23 166.125 662.325 164.46 661.095C161.685 659.04 157.74 659.61 155.685 662.4ZM165.36 659.895C168.81 662.445 169.53 667.335 166.965 670.77C165.735 672.435 163.92 673.53 161.865 673.83L161.85 673.83L162.705 691.335L12.93 900L11.0701 900L161.175 690.885L160.35 673.905C158.82 673.83 157.35 673.32 156.09 672.375C154.035 670.86 152.955 668.505 152.955 666.135C152.955 664.515 153.45 662.895 154.485 661.5C157.035 658.065 161.91 657.33 165.36 659.895Z" fill="#8B8B8B" fill-opacity="0.08"/>
<path d="M164.535 603.315C162.465 606.09 163.05 610.035 165.825 612.105C168.615 614.16 172.545 613.59 174.615 610.8C175.425 609.705 175.845 608.415 175.845 607.08C175.845 606.765 175.83 606.45 175.785 606.15C175.545 604.485 174.66 603.015 173.31 602.025C170.535 599.955 166.59 600.54 164.535 603.315ZM174.21 600.81C175.875 602.055 176.97 603.87 177.27 605.925C177.57 607.98 177.06 610.035 175.815 611.7C173.415 614.94 168.975 615.735 165.585 613.695L121.14 673.56L126.54 710.115L126.585 710.415L4.6808e-05 887.34L4.69207e-05 884.76L125.01 710.04L119.565 673.17L164.355 612.825C162.69 611.31 161.805 609.195 161.805 607.05C161.805 605.445 162.3 603.81 163.32 602.43C165.885 598.98 170.76 598.26 174.21 600.81Z" fill="#8B8B8B" fill-opacity="0.08"/>
<path d="M103.875 558.285C101.805 561.06 102.39 565.005 105.165 567.075C107.955 569.13 111.885 568.545 113.955 565.77C114.765 564.675 115.2 563.385 115.2 562.035C115.2 561.735 115.17 561.42 115.125 561.105C114.885 559.455 114 557.985 112.65 556.995C109.875 554.925 105.945 555.51 103.875 558.285ZM113.55 555.78C115.215 557.025 116.31 558.84 116.61 560.895C116.91 562.95 116.4 564.99 115.155 566.67C112.755 569.895 108.315 570.69 104.925 568.665L60.48 628.53L65.88 665.085L65.925 665.385L-1.71888e-05 757.53L-1.7076e-05 754.95L64.35 665.01L58.905 628.125L103.71 567.795C102.03 566.28 101.145 564.165 101.145 562.02C101.145 560.4 101.64 558.78 102.675 557.385C105.225 553.95 110.115 553.23 113.55 555.78Z" fill="#8B8B8B" fill-opacity="0.08"/>
<path d="M229.08 716.88C227.01 719.67 227.595 723.6 230.37 725.67C231.72 726.675 233.385 727.08 235.035 726.84C236.7 726.6 238.155 725.715 239.16 724.365C240 723.255 240.39 721.935 240.39 720.63C240.39 718.71 239.52 716.82 237.87 715.59C235.08 713.52 231.15 714.105 229.08 716.88ZM238.755 714.39C242.205 716.94 242.925 721.83 240.36 725.265C239.13 726.93 237.315 728.025 235.26 728.325C233.205 728.625 231.15 728.115 229.485 726.87C228.195 725.925 227.295 724.635 226.8 723.225L210.315 727.35L86.3701 900L84.5251 900L209.25 726.255L209.415 726.03L226.44 721.77C226.38 721.395 226.35 721.005 226.35 720.615C226.35 719.01 226.845 717.375 227.88 715.995C230.43 712.545 235.32 711.825 238.755 714.39Z" fill="#8B8B8B" fill-opacity="0.08"/>
<path d="M329.925 803.34C328.935 804.69 328.515 806.34 328.755 808.005C329.01 809.655 329.88 811.125 331.23 812.13C332.58 813.12 334.23 813.54 335.895 813.3C337.545 813.045 339.015 812.175 340.005 810.825C340.845 809.7 341.25 808.395 341.25 807.09C341.25 805.17 340.365 803.28 338.715 802.05C335.94 799.98 331.995 800.565 329.925 803.34ZM339.615 800.835C343.05 803.4 343.77 808.275 341.22 811.725C339.975 813.39 338.16 814.47 336.105 814.785C334.05 815.085 332.01 814.575 330.33 813.33C329.07 812.4 328.155 811.125 327.645 809.685L311.16 813.81L249.285 900L247.44 900L310.11 812.7L310.26 812.49L327.285 808.23C327.225 807.84 327.195 807.45 327.195 807.075C327.195 805.41 327.72 803.805 328.725 802.455C331.29 799.005 336.165 798.285 339.615 800.835Z" fill="#8B8B8B" fill-opacity="0.08"/>
<path d="M292.785 693.015C291.135 693.255 289.665 694.14 288.675 695.475C286.605 698.265 287.19 702.195 289.965 704.265C291.315 705.27 292.965 705.675 294.63 705.435C296.28 705.195 297.75 704.31 298.755 702.96C299.565 701.865 299.985 700.575 299.985 699.24C299.985 698.925 299.97 698.61 299.925 698.31C299.67 696.645 298.8 695.19 297.45 694.185C296.1 693.18 294.45 692.775 292.785 693.015ZM298.35 692.985C300.015 694.215 301.095 696.03 301.41 698.085C301.71 700.125 301.2 702.195 299.955 703.86C298.71 705.525 296.91 706.62 294.855 706.92C293.04 707.19 291.255 706.785 289.725 705.855L245.955 764.805L207.465 771.225L115.335 900L113.49 900L206.43 770.1L206.61 769.86L245.115 763.425L288.495 704.985C286.83 703.47 285.93 701.355 285.93 699.21C285.93 697.605 286.44 695.985 287.46 694.59C288.705 692.925 290.52 691.83 292.575 691.53C294.63 691.23 296.685 691.74 298.35 692.985Z" fill="#8B8B8B" fill-opacity="0.08"/>
<path d="M212.175 645.255C211.17 646.605 210.765 648.255 211.005 649.92C211.245 651.57 212.13 653.04 213.465 654.03C216.255 656.1 220.185 655.515 222.255 652.74C223.095 651.615 223.485 650.31 223.485 649.005C223.485 647.085 222.615 645.18 220.95 643.95C218.175 641.895 214.23 642.48 212.175 645.255ZM221.85 642.75C225.3 645.315 226.005 650.19 223.455 653.625C221.055 656.865 216.615 657.66 213.24 655.635L37.0799 900L35.22 900L212.025 654.735C210.69 653.535 209.79 651.945 209.52 650.13C209.46 649.755 209.43 649.365 209.43 648.975C209.43 647.325 209.97 645.72 210.975 644.355C213.525 640.92 218.4 640.2 221.85 642.75Z" fill="#8B8B8B" fill-opacity="0.08"/>
<path d="M203.55 692.4C201.885 692.64 200.415 693.525 199.425 694.875C197.355 697.65 197.94 701.58 200.715 703.65C202.065 704.655 203.715 705.06 205.38 704.82C207.045 704.58 208.5 703.695 209.505 702.345C210.315 701.25 210.735 699.96 210.735 698.625C210.735 698.31 210.72 697.995 210.675 697.695C210.435 696.03 209.55 694.575 208.2 693.57C206.865 692.565 205.2 692.16 203.55 692.4ZM209.1 692.37C210.765 693.6 211.86 695.415 212.16 697.47C212.46 699.525 211.95 701.58 210.705 703.245C209.475 704.91 207.66 706.005 205.605 706.305C203.805 706.575 202.02 706.17 200.475 705.255L60.5401 900L58.7101 900L199.26 704.385C197.58 702.87 196.68 700.74 196.68 698.595C196.68 696.99 197.19 695.37 198.21 693.975C199.455 692.31 201.27 691.215 203.325 690.915C205.38 690.615 207.435 691.125 209.1 692.37Z" fill="#8B8B8B" fill-opacity="0.08"/>
<path d="M93.3601 708.03C91.2901 710.805 91.8751 714.75 94.6501 716.805C97.4401 718.875 101.37 718.29 103.44 715.515C104.28 714.39 104.67 713.085 104.67 711.78C104.67 709.86 103.8 707.955 102.135 706.725C99.3601 704.67 95.4151 705.255 93.3601 708.03ZM103.035 705.525C106.485 708.075 107.205 712.965 104.64 716.4C102.24 719.64 97.8001 720.435 94.4251 718.41L0.000108386 850.725L0.000108499 848.13L93.1951 717.54C91.5151 716.025 90.6301 713.91 90.6301 711.765C90.6301 710.145 91.1251 708.525 92.1601 707.13C94.7101 703.695 99.5851 702.975 103.035 705.525Z" fill="#8B8B8B" fill-opacity="0.08"/>
<path d="M28.365 654.24C26.7 654.495 25.23 655.365 24.24 656.715C23.235 658.065 22.815 659.715 23.07 661.365C23.31 663.03 24.195 664.5 25.53 665.49C26.88 666.495 28.53 666.915 30.195 666.66C31.86 666.42 33.315 665.535 34.32 664.2C35.145 663.075 35.55 661.755 35.55 660.465C35.55 658.545 34.68 656.64 33.015 655.41C31.68 654.42 30.015 654 28.365 654.24ZM33.915 654.21C37.365 656.76 38.085 661.65 35.52 665.085C34.29 666.75 32.475 667.845 30.42 668.145C28.62 668.415 26.835 668.01 25.305 667.095L-9.127e-06 702.555L-9.01291e-06 699.945L24.09 666.195C22.755 664.995 21.855 663.405 21.585 661.59C21.525 661.2 21.495 660.825 21.495 660.435C21.495 658.785 22.02 657.18 23.04 655.815C24.27 654.15 26.085 653.07 28.14 652.755C30.195 652.455 32.25 652.965 33.915 654.21Z" fill="#8B8B8B" fill-opacity="0.08"/>
<path d="M123.765 620.04C122.115 620.295 120.645 621.165 119.655 622.515C118.65 623.865 118.23 625.515 118.485 627.18C118.725 628.83 119.595 630.3 120.945 631.29C123.72 633.36 127.665 632.775 129.735 630C130.545 628.905 130.965 627.6 130.965 626.265C130.965 625.965 130.95 625.65 130.905 625.335C130.65 623.685 129.78 622.215 128.43 621.21C127.08 620.22 125.43 619.8 123.765 620.04ZM129.33 620.01C130.995 621.255 132.075 623.07 132.375 625.125C132.69 627.165 132.18 629.22 130.935 630.885C128.535 634.125 124.095 634.92 120.705 632.895L1.63335e-05 800.76L1.64463e-05 798.18L119.505 631.995C118.155 630.795 117.255 629.205 117 627.39C116.94 627 116.91 626.625 116.91 626.235C116.91 624.585 117.435 622.98 118.44 621.615C119.685 619.95 121.5 618.87 123.555 618.555C125.61 618.255 127.65 618.765 129.33 620.01Z" fill="#8B8B8B" fill-opacity="0.08"/>
<path d="M217.335 794.535C215.67 794.79 214.215 795.66 213.21 797.01C211.14 799.785 211.725 803.73 214.5 805.785C215.85 806.79 217.515 807.21 219.165 806.955C220.83 806.715 222.285 805.83 223.29 804.495C224.1 803.4 224.535 802.095 224.535 800.76C224.535 800.445 224.505 800.145 224.46 799.83C224.22 798.18 223.335 796.71 221.985 795.705C220.65 794.715 218.985 794.295 217.335 794.535ZM222.885 794.505C224.55 795.75 225.645 797.55 225.945 799.605C226.245 801.66 225.735 803.715 224.49 805.38C223.26 807.06 221.445 808.14 219.39 808.44C217.59 808.71 215.805 808.32 214.275 807.39L148.185 900L146.325 900L213.045 806.52C211.365 805.005 210.48 802.89 210.48 800.745C210.48 799.125 210.975 797.505 212.01 796.11C213.24 794.445 215.055 793.365 217.11 793.05C219.165 792.75 221.22 793.26 222.885 794.505Z" fill="#8B8B8B" fill-opacity="0.08"/>
<path d="M326.55 850.665C324.9 850.905 323.43 851.79 322.425 853.14C320.37 855.915 320.955 859.86 323.73 861.915C325.08 862.92 326.73 863.325 328.395 863.085C330.045 862.845 331.515 861.96 332.505 860.625C333.33 859.53 333.75 858.225 333.75 856.89C333.75 856.575 333.735 856.275 333.675 855.96C333.435 854.295 332.565 852.84 331.215 851.835C329.865 850.83 328.215 850.425 326.55 850.665ZM332.115 850.635C333.78 851.865 334.86 853.68 335.16 855.735C335.475 857.79 334.95 859.845 333.72 861.51C332.475 863.175 330.66 864.27 328.605 864.57C326.805 864.84 325.035 864.435 323.49 863.52L297.45 900L295.62 900L322.275 862.65C320.595 861.135 319.695 859.02 319.695 856.86C319.695 855.255 320.19 853.635 321.225 852.24C322.47 850.575 324.285 849.48 326.34 849.18C328.395 848.88 330.435 849.39 332.115 850.635Z" fill="#8B8B8B" fill-opacity="0.08"/>
<path d="M291.585 744.63C289.92 744.87 288.465 745.755 287.46 747.105C285.39 749.88 285.975 753.825 288.75 755.88C290.1 756.885 291.765 757.305 293.415 757.05C295.08 756.81 296.535 755.925 297.54 754.59C298.35 753.495 298.785 752.19 298.785 750.855C298.785 750.54 298.755 750.24 298.71 749.925C298.47 748.26 297.585 746.805 296.25 745.8C294.9 744.795 293.235 744.39 291.585 744.63ZM297.135 744.6C298.8 745.83 299.895 747.645 300.195 749.7C300.495 751.755 299.985 753.81 298.74 755.475C297.51 757.14 295.695 758.235 293.64 758.535C291.84 758.805 290.055 758.4 288.525 757.485L186.045 900L184.185 900L287.295 756.615C285.615 755.1 284.73 752.985 284.73 750.825C284.73 749.22 285.225 747.6 286.26 746.205C287.49 744.54 289.305 743.445 291.36 743.145C293.415 742.845 295.47 743.355 297.135 744.6Z" fill="#8B8B8B" fill-opacity="0.08"/>
<path d="M326.475 738.87C324.42 741.645 325.005 745.59 327.78 747.645C330.555 749.715 334.5 749.13 336.555 746.355C338.625 743.58 338.04 739.635 335.265 737.565C332.49 735.51 328.545 736.095 326.475 738.87ZM336.15 736.365C339.6 738.93 340.32 743.805 337.77 747.255C335.37 750.48 330.93 751.275 327.54 749.25L218.91 900L217.065 900L326.31 748.38C324.63 746.865 323.745 744.75 323.745 742.605C323.745 740.985 324.24 739.365 325.275 737.97C327.825 734.535 332.715 733.815 336.15 736.365Z" fill="#8B8B8B" fill-opacity="0.08"/>
<path d="M375.675 823.035C373.62 825.81 374.205 829.755 376.98 831.81C379.755 833.88 383.7 833.295 385.755 830.52C387.825 827.745 387.24 823.8 384.465 821.73C381.69 819.675 377.745 820.26 375.675 823.035ZM385.35 820.53C388.8 823.095 389.52 827.97 386.97 831.42C384.57 834.645 380.13 835.44 376.74 833.415L328.755 900L326.91 900L375.51 832.545C373.83 831.03 372.945 828.915 372.945 826.77C372.945 825.15 373.44 823.53 374.475 822.135C377.025 818.7 381.915 817.98 385.35 820.53Z" fill="#8B8B8B" fill-opacity="0.08"/>
<path d="M155.685 662.4C153.615 665.175 154.2 669.12 156.975 671.175C158.325 672.18 159.99 672.6 161.64 672.345C163.305 672.105 164.76 671.22 165.765 669.885C166.605 668.76 166.995 667.44 166.995 666.15C166.995 664.23 166.125 662.325 164.46 661.095C161.685 659.04 157.74 659.61 155.685 662.4ZM165.36 659.895C168.81 662.445 169.53 667.335 166.965 670.77C165.735 672.435 163.92 673.53 161.865 673.83L161.85 673.83L162.705 691.335L12.93 900L11.0701 900L161.175 690.885L160.35 673.905C158.82 673.83 157.35 673.32 156.09 672.375C154.035 670.86 152.955 668.505 152.955 666.135C152.955 664.515 153.45 662.895 154.485 661.5C157.035 658.065 161.91 657.33 165.36 659.895Z" fill="#8B8B8B" fill-opacity="0.08"/>
<path d="M164.535 603.315C162.465 606.09 163.05 610.035 165.825 612.105C168.615 614.16 172.545 613.59 174.615 610.8C175.425 609.705 175.845 608.415 175.845 607.08C175.845 606.765 175.83 606.45 175.785 606.15C175.545 604.485 174.66 603.015 173.31 602.025C170.535 599.955 166.59 600.54 164.535 603.315ZM174.21 600.81C175.875 602.055 176.97 603.87 177.27 605.925C177.57 607.98 177.06 610.035 175.815 611.7C173.415 614.94 168.975 615.735 165.585 613.695L121.14 673.56L126.54 710.115L126.585 710.415L4.6808e-05 887.34L4.69207e-05 884.76L125.01 710.04L119.565 673.17L164.355 612.825C162.69 611.31 161.805 609.195 161.805 607.05C161.805 605.445 162.3 603.81 163.32 602.43C165.885 598.98 170.76 598.26 174.21 600.81Z" fill="#8B8B8B" fill-opacity="0.08"/>
<path d="M103.875 558.285C101.805 561.06 102.39 565.005 105.165 567.075C107.955 569.13 111.885 568.545 113.955 565.77C114.765 564.675 115.2 563.385 115.2 562.035C115.2 561.735 115.17 561.42 115.125 561.105C114.885 559.455 114 557.985 112.65 556.995C109.875 554.925 105.945 555.51 103.875 558.285ZM113.55 555.78C115.215 557.025 116.31 558.84 116.61 560.895C116.91 562.95 116.4 564.99 115.155 566.67C112.755 569.895 108.315 570.69 104.925 568.665L60.48 628.53L65.88 665.085L65.925 665.385L-1.71888e-05 757.53L-1.7076e-05 754.95L64.35 665.01L58.905 628.125L103.71 567.795C102.03 566.28 101.145 564.165 101.145 562.02C101.145 560.4 101.64 558.78 102.675 557.385C105.225 553.95 110.115 553.23 113.55 555.78Z" fill="#8B8B8B" fill-opacity="0.08"/>
<path d="M229.08 716.88C227.01 719.67 227.595 723.6 230.37 725.67C231.72 726.675 233.385 727.08 235.035 726.84C236.7 726.6 238.155 725.715 239.16 724.365C240 723.255 240.39 721.935 240.39 720.63C240.39 718.71 239.52 716.82 237.87 715.59C235.08 713.52 231.15 714.105 229.08 716.88ZM238.755 714.39C242.205 716.94 242.925 721.83 240.36 725.265C239.13 726.93 237.315 728.025 235.26 728.325C233.205 728.625 231.15 728.115 229.485 726.87C228.195 725.925 227.295 724.635 226.8 723.225L210.315 727.35L86.3701 900L84.5251 900L209.25 726.255L209.415 726.03L226.44 721.77C226.38 721.395 226.35 721.005 226.35 720.615C226.35 719.01 226.845 717.375 227.88 715.995C230.43 712.545 235.32 711.825 238.755 714.39Z" fill="#8B8B8B" fill-opacity="0.08"/>
<path d="M329.925 803.34C328.935 804.69 328.515 806.34 328.755 808.005C329.01 809.655 329.88 811.125 331.23 812.13C332.58 813.12 334.23 813.54 335.895 813.3C337.545 813.045 339.015 812.175 340.005 810.825C340.845 809.7 341.25 808.395 341.25 807.09C341.25 805.17 340.365 803.28 338.715 802.05C335.94 799.98 331.995 800.565 329.925 803.34ZM339.615 800.835C343.05 803.4 343.77 808.275 341.22 811.725C339.975 813.39 338.16 814.47 336.105 814.785C334.05 815.085 332.01 814.575 330.33 813.33C329.07 812.4 328.155 811.125 327.645 809.685L311.16 813.81L249.285 900L247.44 900L310.11 812.7L310.26 812.49L327.285 808.23C327.225 807.84 327.195 807.45 327.195 807.075C327.195 805.41 327.72 803.805 328.725 802.455C331.29 799.005 336.165 798.285 339.615 800.835Z" fill="#8B8B8B" fill-opacity="0.08"/>
<path d="M397.485 863.34C396.495 864.69 396.075 866.34 396.315 868.005C396.57 869.655 397.44 871.125 398.79 872.13C400.14 873.12 401.79 873.54 403.455 873.3C405.105 873.045 406.575 872.175 407.565 870.825C408.405 869.7 408.81 868.395 408.81 867.09C408.81 865.17 407.925 863.28 406.275 862.05C403.5 859.98 399.555 860.565 397.485 863.34ZM407.175 860.835C410.61 863.4 411.33 868.275 408.78 871.725C407.535 873.39 405.72 874.47 403.665 874.785C401.61 875.085 399.57 874.575 397.89 873.33C396.63 872.4 395.715 871.125 395.205 869.685L378.72 873.81L359.925 900L358.065 900L377.67 872.7L377.82 872.49L394.845 868.23C394.785 867.84 394.755 867.45 394.755 867.075C394.755 865.41 395.28 863.805 396.285 862.455C398.85 859.005 403.725 858.285 407.175 860.835Z" fill="#8B8B8B" fill-opacity="0.08"/>
<path d="M16.3801 572.535C14.3251 575.31 14.9101 579.255 17.6851 581.31C20.4601 583.38 24.4051 582.795 26.4601 580.02C28.5301 577.245 27.9451 573.3 25.1701 571.23C22.3951 569.175 18.4501 569.76 16.3801 572.535ZM26.0551 570.03C29.5051 572.595 30.2251 577.47 27.6751 580.92C25.2751 584.145 20.8351 584.94 17.4451 582.915L0.000135093 607.125L0.000135205 604.545L16.2152 582.045C14.5352 580.53 13.6501 578.415 13.6501 576.27C13.6501 574.65 14.1451 573.03 15.1801 571.635C17.7301 568.2 22.6201 567.48 26.0551 570.03Z" fill="#8B8B8B" fill-opacity="0.08"/>
<path d="M8.17505 521.37C6.12005 524.145 6.70504 528.09 9.48004 530.145C12.255 532.215 16.2 531.63 18.255 528.855C20.325 526.08 19.7401 522.135 16.9651 520.065C14.1901 518.01 10.2451 518.595 8.17505 521.37ZM17.8501 518.865C21.3 521.43 22.0201 526.305 19.4701 529.755C17.0701 532.98 12.6301 533.775 9.24007 531.75L4.96519e-05 544.575L4.97647e-05 541.995L8.01004 530.88C6.33004 529.365 5.44506 527.25 5.44506 525.105C5.44506 523.485 5.94005 521.865 6.97505 520.47C9.52505 517.035 14.4151 516.315 17.8501 518.865Z" fill="#8B8B8B" fill-opacity="0.08"/>
<path d="M38.175 612.84C37.185 614.19 36.765 615.84 37.005 617.505C37.26 619.155 38.13 620.625 39.48 621.63C40.83 622.62 42.48 623.04 44.145 622.8C45.795 622.545 47.265 621.675 48.255 620.325C49.095 619.2 49.5 617.895 49.5 616.59C49.5 614.67 48.6151 612.78 46.9651 611.55C44.1901 609.48 40.245 610.065 38.175 612.84ZM47.8651 610.335C51.3001 612.9 52.02 617.775 49.47 621.225C48.225 622.89 46.41 623.97 44.355 624.285C42.3 624.585 40.26 624.075 38.58 622.83C37.32 621.9 36.405 620.625 35.895 619.185L19.41 623.31L3.63188e-05 650.355L3.64316e-05 647.775L18.36 622.2L18.51 621.99L35.535 617.73C35.475 617.34 35.445 616.95 35.445 616.575C35.445 614.91 35.97 613.305 36.975 611.955C39.54 608.505 44.4151 607.785 47.8651 610.335Z" fill="#8B8B8B" fill-opacity="0.08"/>
<path d="M292.785 693.015C291.135 693.255 289.665 694.14 288.675 695.475C286.605 698.265 287.19 702.195 289.965 704.265C291.315 705.27 292.965 705.675 294.63 705.435C296.28 705.195 297.75 704.31 298.755 702.96C299.565 701.865 299.985 700.575 299.985 699.24C299.985 698.925 299.97 698.61 299.925 698.31C299.67 696.645 298.8 695.19 297.45 694.185C296.1 693.18 294.45 692.775 292.785 693.015ZM298.35 692.985C300.015 694.215 301.095 696.03 301.41 698.085C301.71 700.125 301.2 702.195 299.955 703.86C298.71 705.525 296.91 706.62 294.855 706.92C293.04 707.19 291.255 706.785 289.725 705.855L245.955 764.805L207.465 771.225L115.335 900L113.49 900L206.43 770.1L206.61 769.86L245.115 763.425L288.495 704.985C286.83 703.47 285.93 701.355 285.93 699.21C285.93 697.605 286.44 695.985 287.46 694.59C288.705 692.925 290.52 691.83 292.575 691.53C294.63 691.23 296.685 691.74 298.35 692.985Z" fill="#8B8B8B" fill-opacity="0.08"/>
</svg>
