<svg width="24" height="24" viewBox="0 0 24 24" fill="none" xmlns="http://www.w3.org/2000/svg">
<path d="M6.42849 14.5712C5.83515 14.5712 5.25514 14.7472 4.7618 15.0768C4.26846 15.4065 3.88395 15.875 3.65689 16.4232C3.42983 16.9713 3.37042 17.5745 3.48617 18.1565C3.60193 18.7384 3.88765 19.2729 4.3072 19.6925C4.72675 20.1121 5.26129 20.3978 5.84323 20.5135C6.42516 20.6293 7.02835 20.5699 7.57653 20.3428C8.1247 20.1157 8.59323 19.7312 8.92287 19.2379C9.25251 18.7446 9.42845 18.1645 9.42845 17.5712C9.42754 16.7758 9.11119 16.0133 8.54878 15.4509C7.98638 14.8885 7.22385 14.5722 6.42849 14.5712ZM6.42849 19.2855C6.08944 19.2855 5.75801 19.1849 5.4761 18.9966C5.19419 18.8082 4.97447 18.5405 4.84472 18.2272C4.71497 17.914 4.68102 17.5693 4.74717 17.2368C4.81331 16.9042 4.97658 16.5988 5.21632 16.359C5.45607 16.1193 5.76152 15.956 6.09405 15.8899C6.42659 15.8237 6.77127 15.8577 7.08451 15.9874C7.39775 16.1172 7.66548 16.3369 7.85385 16.6188C8.04221 16.9007 8.14275 17.2322 8.14275 17.5712C8.14275 18.0259 7.96214 18.4619 7.64066 18.7834C7.31917 19.1049 6.88314 19.2855 6.42849 19.2855Z" fill="#D6E9FF"/>
<path d="M6.42849 18.4283C6.90187 18.4283 7.28562 18.0446 7.28562 17.5712C7.28562 17.0978 6.90187 16.7141 6.42849 16.7141C5.95511 16.7141 5.57136 17.0978 5.57136 17.5712C5.57136 18.0446 5.95511 18.4283 6.42849 18.4283Z" fill="#D6E9FF"/>
<path d="M11.4277 16.3841C11.3016 15.8511 11.0903 15.342 10.802 14.8764C10.7513 14.7942 10.7297 14.6973 10.7409 14.6014C10.7521 14.5055 10.7954 14.4162 10.8637 14.348L11.5803 13.6318L10.3679 12.4194L9.65173 13.136C9.58349 13.2043 9.49417 13.2476 9.39826 13.2588C9.30235 13.27 9.20546 13.2484 9.12331 13.1977C8.65765 12.9094 8.14855 12.6981 7.61562 12.572C7.52169 12.5498 7.43801 12.4965 7.37812 12.4209C7.31823 12.3452 7.28564 12.2515 7.28562 12.155V11.1427H5.57136V12.155C5.57134 12.2515 5.53875 12.3452 5.47886 12.4209C5.41897 12.4965 5.33528 12.5498 5.24136 12.572C4.70843 12.6981 4.19932 12.9094 3.73367 13.1977C3.65151 13.2484 3.55463 13.27 3.45872 13.2588C3.36281 13.2476 3.27349 13.2043 3.20524 13.136L2.48911 12.4194L1.2767 13.6318L1.99326 14.348C2.06191 14.4159 2.10557 14.5051 2.11717 14.6011C2.12876 14.697 2.1076 14.794 2.05712 14.8764C1.76885 15.342 1.55757 15.8511 1.43141 16.3841C1.40921 16.478 1.35596 16.5617 1.28028 16.6216C1.2046 16.6815 1.11093 16.7141 1.01442 16.7141H0V18.4283H1.01227C1.10878 18.4284 1.20246 18.4609 1.27814 18.5208C1.35382 18.5807 1.40707 18.6644 1.42927 18.7583C1.55609 19.2914 1.7681 19.8005 2.05712 20.266C2.10787 20.3482 2.12938 20.4451 2.11818 20.541C2.10698 20.6369 2.06372 20.7262 1.9954 20.7944L1.2767 21.5106L2.48911 22.723L3.20524 22.0064C3.27349 21.9381 3.36281 21.8949 3.45872 21.8837C3.55463 21.8725 3.65151 21.894 3.73367 21.9447C4.19932 22.233 4.70843 22.4443 5.24136 22.5704C5.33528 22.5926 5.41897 22.6459 5.47886 22.7216C5.53875 22.7972 5.57134 22.8909 5.57136 22.9874V23.9997H7.28562V22.9874C7.28564 22.8909 7.31823 22.7972 7.37812 22.7216C7.43801 22.6459 7.52169 22.5926 7.61562 22.5704C8.14855 22.4443 8.65765 22.233 9.12331 21.9447C9.20546 21.894 9.30235 21.8725 9.39826 21.8837C9.49417 21.8949 9.58349 21.9381 9.65173 22.0064L10.3679 22.723L11.5803 21.5106L10.8637 20.7944C10.7954 20.7262 10.7521 20.6369 10.7409 20.541C10.7297 20.4451 10.7513 20.3482 10.802 20.266C11.0903 19.8004 11.3016 19.2913 11.4277 18.7583C11.4499 18.6644 11.5032 18.5807 11.5788 18.5208C11.6545 18.4609 11.7482 18.4284 11.8447 18.4283H12.857V16.7141H11.8447C11.7482 16.7141 11.6545 16.6815 11.5788 16.6216C11.5032 16.5617 11.4499 16.478 11.4277 16.3841ZM6.42849 21.4283C5.66563 21.4283 4.9199 21.2021 4.2856 20.7783C3.65131 20.3544 3.15693 19.752 2.865 19.0472C2.57307 18.3425 2.49668 17.5669 2.64551 16.8187C2.79434 16.0705 3.16169 15.3833 3.70111 14.8438C4.24054 14.3044 4.9278 13.9371 5.67601 13.7882C6.42421 13.6394 7.19974 13.7158 7.90454 14.0077C8.60933 14.2996 9.21172 14.794 9.63555 15.4283C10.0594 16.0626 10.2856 16.8083 10.2856 17.5712C10.2843 18.5938 9.87756 19.5741 9.15449 20.2972C8.43141 21.0203 7.45107 21.427 6.42849 21.4283Z" fill="#D6E9FF"/>
<path d="M8.44575 8.12947C8.44889 8.12967 8.45204 8.12967 8.45518 8.12947C8.45946 8.12947 8.46246 8.1239 8.46675 8.12175C8.50176 8.10347 8.53032 8.0749 8.54861 8.0399C8.55075 8.03561 8.55461 8.03261 8.55632 8.02833C8.55652 8.02519 8.55652 8.02204 8.55632 8.0189C8.5652 7.99826 8.57029 7.9762 8.57132 7.95375C8.57296 7.91418 8.56084 7.87526 8.53703 7.84361C8.47371 7.77353 8.41637 7.69827 8.36561 7.61862C8.32332 7.55026 8.28663 7.4786 8.25589 7.40433C8.25204 7.39491 8.24561 7.38633 8.24175 7.3769C8.21372 7.30439 8.19165 7.22972 8.17575 7.15362C8.17575 7.14248 8.16847 7.13262 8.16632 7.12148C8.15006 7.03429 8.14217 6.94575 8.14275 6.85705C8.14275 5.89578 9.0856 5.14279 10.2856 5.14279C11.4856 5.14279 12.4284 5.89578 12.4284 6.85705C12.4284 6.9458 12.4199 7.03434 12.4031 7.12148C12.3971 7.15148 12.3847 7.18062 12.3766 7.21062C12.3636 7.2667 12.3473 7.32194 12.3277 7.37605C12.2574 7.54924 12.1573 7.70879 12.032 7.84747C12.0292 7.85185 12.0268 7.85644 12.0247 7.86118C12.0081 7.88934 11.9995 7.9215 11.9998 7.95418C12.0003 7.97611 12.0048 7.99776 12.0131 8.01804C12.0129 8.02118 12.0129 8.02433 12.0131 8.02747C12.0131 8.03175 12.0187 8.03475 12.0208 8.03904C12.0391 8.07405 12.0677 8.10261 12.1027 8.1209C12.107 8.12304 12.11 8.1269 12.1143 8.12861C12.1174 8.12881 12.1206 8.12881 12.1237 8.12861C12.1443 8.13695 12.1662 8.14146 12.1884 8.14189H14.5712V5.76164C14.5715 5.48392 14.6819 5.21764 14.8783 5.02126C15.0747 4.82488 15.3409 4.71445 15.6187 4.71423C15.8668 4.71184 16.1072 4.80042 16.2945 4.96322C16.4069 5.07352 16.5567 5.1376 16.7141 5.14279C17.1786 5.14279 17.5712 4.55394 17.5712 3.85709C17.5712 3.16025 17.1786 2.5714 16.7141 2.5714C16.557 2.57659 16.4075 2.64033 16.2949 2.75011C16.1077 2.91346 15.8671 3.00238 15.6187 2.99996C15.3409 2.99973 15.0747 2.88931 14.8783 2.69293C14.6819 2.49655 14.5715 2.23027 14.5712 1.95255V0H7.28562C6.94463 0 6.61761 0.135457 6.3765 0.376572C6.13538 0.617687 5.99992 0.94471 5.99992 1.2857V8.14275H8.38104C8.40324 8.14232 8.42517 8.13781 8.44575 8.12947Z" fill="#D6E9FF"/>
<path d="M22.714 0H15.4284V1.95255C15.4284 1.97753 15.4333 2.00228 15.4429 2.02536C15.4524 2.04845 15.4664 2.06943 15.4841 2.0871C15.5018 2.10477 15.5228 2.11878 15.5458 2.12835C15.5689 2.13791 15.5937 2.14283 15.6187 2.14283C15.6568 2.14477 15.6944 2.13325 15.7249 2.11026C15.9938 1.85971 16.3466 1.7185 16.7141 1.71426C17.6595 1.71426 18.4283 2.67554 18.4283 3.85709C18.4283 5.03865 17.6595 5.99992 16.7141 5.99992C16.3464 5.99563 15.9935 5.85427 15.7245 5.6035C15.694 5.58079 15.6566 5.56943 15.6187 5.57136C15.5937 5.57136 15.5689 5.57628 15.5458 5.58584C15.5228 5.5954 15.5018 5.60942 15.4841 5.62709C15.4664 5.64476 15.4524 5.66574 15.4429 5.68882C15.4333 5.71191 15.4284 5.73665 15.4284 5.76164V8.14275H17.8112C18.0884 8.14309 18.3542 8.25337 18.5502 8.44941C18.7463 8.64544 18.8566 8.91122 18.8569 9.18845C18.8567 9.35713 18.8154 9.52321 18.7365 9.67231C18.7016 9.7413 18.6584 9.80578 18.6079 9.8643C18.4971 9.97711 18.433 10.1276 18.4283 10.2856C18.4283 10.7501 19.0172 11.1427 19.714 11.1427C20.4109 11.1427 20.9997 10.7501 20.9997 10.2856C21.0003 10.212 20.9857 10.139 20.9569 10.0713C20.924 9.99641 20.879 9.92748 20.8236 9.8673C20.6619 9.67859 20.5725 9.43864 20.5712 9.19017C20.5711 8.91264 20.6811 8.64642 20.8772 8.45001C21.0733 8.25361 21.3393 8.14309 21.6169 8.14275H23.9997V1.2857C23.9997 0.94471 23.8642 0.617687 23.6231 0.376572C23.382 0.135457 23.055 0 22.714 0Z" fill="#D6E9FF"/>
<path d="M21.5539 9.01317C21.5507 9.01297 21.5476 9.01297 21.5444 9.01317C21.5402 9.01317 21.5372 9.01874 21.5329 9.02089C21.4979 9.03917 21.4693 9.06773 21.451 9.10274C21.451 9.10703 21.445 9.11003 21.4433 9.11431C21.4431 9.11745 21.4431 9.1206 21.4433 9.12374C21.4352 9.14395 21.4307 9.16541 21.43 9.18717C21.4284 9.22674 21.4405 9.26566 21.4643 9.29731C21.5276 9.36739 21.585 9.44265 21.6357 9.52231C21.678 9.59066 21.7147 9.66232 21.7454 9.73659C21.7493 9.74602 21.7557 9.75459 21.7596 9.76402C21.7876 9.83653 21.8097 9.91121 21.8256 9.9873C21.8277 9.99844 21.8329 10.0083 21.835 10.0194C21.8508 10.1073 21.8581 10.1964 21.8569 10.2856C21.8569 11.2469 20.914 11.9998 19.714 11.9998C18.514 11.9998 17.5712 11.2469 17.5712 10.2856C17.5712 10.1968 17.5797 10.1083 17.5965 10.0212C17.5965 10.0134 17.6021 10.0057 17.6038 9.99759C17.6199 9.91879 17.6427 9.84151 17.6719 9.76659C17.7422 9.5934 17.8423 9.43385 17.9676 9.29517C17.9704 9.29079 17.9728 9.2862 17.9749 9.28145C17.9914 9.25354 17.9999 9.22171 17.9998 9.18931C17.9993 9.16739 17.9948 9.14573 17.9865 9.12546C17.9867 9.12232 17.9867 9.11917 17.9865 9.11603C17.9865 9.11174 17.9809 9.10874 17.9788 9.10446C17.9605 9.06945 17.9319 9.04088 17.8969 9.0226C17.8926 9.02046 17.8896 9.0166 17.8853 9.01489C17.8822 9.01468 17.8791 9.01468 17.8759 9.01489C17.8549 9.00574 17.8324 9.00065 17.8095 8.99989H15.4284V11.3827C15.428 11.6599 15.3178 11.9257 15.1217 12.1218C14.9257 12.3178 14.6599 12.4281 14.3827 12.4284C14.1341 12.4308 13.8932 12.3424 13.7051 12.1798C13.5928 12.0693 13.443 12.0051 13.2855 11.9998C12.8248 11.9998 12.4357 12.5797 12.4284 13.2688L12.488 13.3288C12.5582 13.3997 12.601 13.4932 12.6089 13.5927C12.6167 13.6922 12.5891 13.7912 12.5308 13.8723C12.5308 13.8761 12.533 13.8808 12.5347 13.8847C12.5407 13.8995 12.5458 13.9147 12.5501 13.9301C12.5547 13.944 12.5602 13.9576 12.5664 13.9708C12.5664 13.973 12.5771 13.9953 12.5823 14.0077C12.5874 14.0201 12.5891 14.0227 12.5921 14.03C12.5951 14.0372 12.6016 14.0497 12.6067 14.0595C12.6243 14.0908 12.6397 14.1161 12.6551 14.1405L12.6796 14.1834C12.6843 14.1902 12.6894 14.198 12.6946 14.2044C12.7423 14.275 12.7978 14.3399 12.86 14.3981C12.8751 14.4137 12.8921 14.4273 12.9106 14.4388C12.9352 14.4568 12.9611 14.473 12.9881 14.4872C13.0117 14.5028 13.0368 14.5157 13.0631 14.5258C13.0935 14.5378 13.1205 14.5468 13.1488 14.5558L13.205 14.567C13.2131 14.567 13.2204 14.567 13.2285 14.567C13.2733 14.57 13.3183 14.5683 13.3627 14.5618C13.3823 14.5586 13.4018 14.5543 13.421 14.549C13.4659 14.5388 13.5092 14.5223 13.5495 14.5001L13.5641 14.4932C13.58 14.4842 13.5924 14.4761 13.607 14.4675C13.6412 14.4456 13.6737 14.4211 13.7043 14.3942C13.7124 14.3874 13.7218 14.3822 13.73 14.3758C13.762 14.3489 13.796 14.3243 13.8315 14.3021C13.8538 14.288 13.8778 14.276 13.9014 14.2635C13.9095 14.2592 13.9181 14.2532 13.9267 14.2498C13.9353 14.2464 13.94 14.2455 13.9455 14.2425C13.9911 14.2214 14.0383 14.2038 14.0865 14.1898C14.1118 14.1825 14.135 14.1752 14.162 14.1692C14.2344 14.1529 14.3084 14.144 14.3827 14.1427C14.4506 14.1428 14.5184 14.1497 14.585 14.1632C14.615 14.1692 14.6428 14.18 14.6707 14.1885C14.7048 14.1972 14.7384 14.2077 14.7714 14.2198C14.8065 14.2352 14.8406 14.2525 14.8738 14.2717C14.8965 14.2837 14.9197 14.2944 14.9415 14.3085C14.9766 14.332 15.0102 14.3574 15.0422 14.3848C15.0585 14.3981 15.0757 14.411 15.0915 14.4255C15.1235 14.456 15.1534 14.4885 15.1811 14.5228C15.1935 14.5378 15.2064 14.552 15.2179 14.5657C15.2451 14.6023 15.2695 14.6409 15.2912 14.681C15.3002 14.6972 15.3092 14.7127 15.3174 14.7294C15.3376 14.771 15.3551 14.814 15.3697 14.858C15.3752 14.8747 15.3808 14.8918 15.3859 14.9094C15.3984 14.9561 15.4077 15.0037 15.4138 15.0517C15.4138 15.0611 15.4181 15.0701 15.4189 15.0795C15.4255 15.1154 15.4286 15.1519 15.4284 15.1884V17.1426H17.1426V16.7141C17.1426 16.3731 17.2781 16.0461 17.5192 15.8049C17.7603 15.5638 18.0873 15.4284 18.4283 15.4284C18.7693 15.4284 19.0963 15.5638 19.3375 15.8049C19.5786 16.0461 19.714 16.3731 19.714 16.7141V17.1426H22.714C23.055 17.1426 23.382 17.0072 23.6231 16.7661C23.8642 16.525 23.9997 16.1979 23.9997 15.8569V8.99989H21.6186C21.5964 9.00032 21.5744 9.00483 21.5539 9.01317Z" fill="#D6E9FF"/>
<path d="M14.5091 15.0517C14.5065 15.0491 14.5027 15.0478 14.4997 15.0452C14.4677 15.0161 14.426 14.9999 14.3827 14.9998C14.3492 15.0001 14.3166 15.0103 14.2888 15.0289C14.2068 15.096 14.1199 15.1568 14.0287 15.2107C14.0171 15.2179 14.0055 15.2257 13.9935 15.2325L13.9794 15.2411C13.8995 15.2874 13.8145 15.3244 13.7261 15.3512L13.7115 15.3555C13.6277 15.3813 13.5416 15.3994 13.4544 15.4095C13.4343 15.4121 13.4145 15.4155 13.3944 15.4172C13.3006 15.4254 13.2062 15.4254 13.1124 15.4172C13.0944 15.4172 13.0627 15.4121 13.0455 15.4082L12.9971 15.3971C12.9757 15.3928 12.9543 15.3877 12.9363 15.3829H12.9341C12.9243 15.3804 12.914 15.3782 12.9041 15.3752L12.8767 15.3654C12.827 15.3504 12.785 15.3362 12.7447 15.3225L12.7361 15.3182H12.7306C12.6844 15.2993 12.6396 15.2772 12.5964 15.2522C12.5891 15.2479 12.5831 15.2467 12.5758 15.2419C12.5686 15.2372 12.5527 15.2269 12.542 15.2205C12.4971 15.1974 12.4541 15.1707 12.4134 15.1408C12.3669 15.1081 12.3225 15.0725 12.2806 15.0341L12.2694 15.0229C12.2664 15.0195 12.2638 15.0187 12.2604 15.0152C12.257 15.0118 12.2506 15.0028 12.2454 14.9977C12.1542 14.9073 12.0719 14.8083 11.9998 14.7019C11.9724 14.6664 11.948 14.6285 11.927 14.5888L11.9218 14.5807C11.912 14.5644 11.9017 14.5511 11.8923 14.534L11.7046 14.7217C11.8997 15.0829 12.057 15.4633 12.1738 15.8569H13.2855C13.3992 15.8569 13.5082 15.9021 13.5886 15.9825C13.669 16.0628 13.7141 16.1718 13.7141 16.2855V17.1426H14.5712V15.2051C14.5712 15.1952 14.5687 15.1849 14.5682 15.1747C14.5646 15.1277 14.5435 15.0838 14.5091 15.0517Z" fill="#D6E9FF"/>
<path d="M8.14275 10.7141V11.8258C8.53643 11.9434 8.91688 12.1014 9.27802 12.2973L10.0649 11.5104C10.1452 11.4301 10.2542 11.3849 10.3679 11.3849C10.4815 11.3849 10.5905 11.4301 10.6709 11.5104L11.6844 12.524C11.7643 12.1507 11.9639 11.8137 12.253 11.5644C12.542 11.315 12.9046 11.167 13.2855 11.1427C13.6528 11.1468 14.0053 11.2881 14.2738 11.5387C14.3053 11.5616 14.3437 11.5731 14.3827 11.5713C14.4324 11.5705 14.48 11.5504 14.5152 11.5152C14.5504 11.48 14.5705 11.4325 14.5712 11.3827V8.99989H12.1884C11.9112 8.99954 11.6454 8.88926 11.4494 8.69323C11.2533 8.4972 11.1431 8.23142 11.1427 7.95418C11.1429 7.78551 11.1843 7.61942 11.2631 7.47033C11.298 7.40134 11.3412 7.33686 11.3917 7.27834C11.5025 7.16553 11.5666 7.01508 11.5713 6.85706C11.5713 6.39249 10.9824 5.99992 10.2856 5.99992C9.58873 5.99992 8.99989 6.39249 8.99989 6.85706C8.99998 6.93082 9.0153 7.00377 9.04488 7.07134C9.07774 7.14623 9.12278 7.21516 9.17817 7.27534C9.33904 7.46435 9.42771 7.70426 9.42845 7.95247C9.42856 8.23 9.31848 8.49622 9.1224 8.69262C8.92632 8.88903 8.66028 8.99954 8.38275 8.99989H5.99992V10.2856H7.71419C7.82785 10.2856 7.93686 10.3307 8.01723 10.4111C8.0976 10.4915 8.14275 10.6005 8.14275 10.7141Z" fill="#D6E9FF"/>
<path d="M23.6461 19.72C23.5844 19.7091 23.521 19.7118 23.4605 19.7279C23.3999 19.7441 23.3437 19.7734 23.2956 19.8137C23.2476 19.854 23.209 19.9043 23.1826 19.9612C23.1561 20.018 23.1425 20.0799 23.1426 20.1426C23.1426 20.2563 23.0974 20.3653 23.017 20.4456C22.9367 20.526 22.8277 20.5712 22.714 20.5712C22.6003 20.5712 22.4913 20.526 22.411 20.4456C22.3306 20.3653 22.2854 20.2563 22.2854 20.1426C22.2854 20.0289 22.2403 19.9199 22.1599 19.8396C22.0795 19.7592 21.9705 19.714 21.8569 19.714C21.7432 19.714 21.6342 19.7592 21.5538 19.8396C21.4735 19.9199 21.4283 20.0289 21.4283 20.1426C21.4283 20.2563 21.3831 20.3653 21.3028 20.4456C21.2224 20.526 21.1134 20.5712 20.9997 20.5712C20.8861 20.5712 20.7771 20.526 20.6967 20.4456C20.6163 20.3653 20.5712 20.2563 20.5712 20.1426C20.5712 20.0289 20.526 19.9199 20.4456 19.8396C20.3653 19.7592 20.2563 19.714 20.1426 19.714C20.0289 19.714 19.9199 19.7592 19.8396 19.8396C19.7592 19.9199 19.714 20.0289 19.714 20.1426C19.714 20.2563 19.6689 20.3653 19.5885 20.4456C19.5081 20.526 19.3991 20.5712 19.2855 20.5712C19.1718 20.5712 19.0628 20.526 18.9824 20.4456C18.9021 20.3653 18.8569 20.2563 18.8569 20.1426V16.7141C18.8569 16.6004 18.8118 16.4914 18.7314 16.411C18.651 16.3307 18.542 16.2855 18.4283 16.2855C18.3147 16.2855 18.2057 16.3307 18.1253 16.411C18.0449 16.4914 17.9998 16.6004 17.9998 16.7141V22.2854C17.9998 22.3613 17.9796 22.4358 17.9414 22.5013C17.9032 22.5668 17.8482 22.621 17.7822 22.6584C17.7162 22.6957 17.6414 22.7149 17.5656 22.7139C17.4897 22.7129 17.4155 22.6918 17.3505 22.6527L15.5638 21.5813C15.5166 21.5526 15.4629 21.5364 15.4077 21.5343C15.3524 21.5322 15.2976 21.5442 15.2484 21.5693L15.1807 21.6032C15.1261 21.6302 15.0803 21.672 15.0483 21.7239C15.0164 21.7757 14.9995 21.8354 14.9998 21.8963C14.9999 21.9486 15.0124 22.0001 15.0363 22.0466C15.0602 22.0931 15.0949 22.1333 15.1374 22.1637L17.7088 24.0001H23.9997V20.1885C24.0036 20.0816 23.9705 19.9767 23.9061 19.8914C23.8418 19.8061 23.7499 19.7456 23.6461 19.72Z" fill="#D6E9FF"/>
</svg>
