<svg width="24" height="27" viewBox="0 0 24 27" fill="none" xmlns="http://www.w3.org/2000/svg">
<path fillRule="evenodd" clipRule="evenodd" d="M0.739698 0H12.1094V4.19013C12.1093 4.24521 12.1201 4.29976 12.1411 4.35066C12.1622 4.40157 12.193 4.44783 12.2319 4.48681C12.2708 4.52578 12.3171 4.5567 12.3679 4.57779C12.4188 4.59889 12.4734 4.60975 12.5284 4.60975H16.0762V11.2202L15.3144 10.5109C15.3144 10.5028 15.3144 10.4946 15.3159 10.4868C15.3392 10.1823 15.3021 9.8763 15.2069 9.5862C15.1116 9.2961 14.9601 9.02764 14.7609 8.79621C14.5618 8.56477 14.3189 8.37489 14.0463 8.23746C13.7736 8.10003 13.4765 8.01774 13.172 7.99531C11.9275 6.70721 10.2431 5.93556 8.45483 5.83424C6.66657 5.73293 4.90583 6.30939 3.52374 7.44868C2.14165 8.58797 1.23979 10.2064 0.997997 11.9811C0.756208 13.7558 1.19226 15.5565 2.21921 17.024L0.739698 19.5863V0ZM17.4589 12.6219C17.1396 12.5738 16.8132 12.6323 16.5305 12.7883L14.398 10.8036C14.4306 10.7119 14.4543 10.6173 14.4689 10.5211C14.4996 10.3143 14.4861 10.1033 14.4291 9.90209C14.3722 9.70089 14.2731 9.5141 14.1384 9.35411C14.0038 9.19413 13.8366 9.0646 13.6481 8.97413C13.4596 8.88366 13.2539 8.83431 13.0449 8.82936C12.8358 8.82441 12.6281 8.86396 12.4355 8.9454C12.2429 9.02684 12.0698 9.14831 11.9277 9.30174C11.7857 9.45516 11.6778 9.63705 11.6114 9.83533C11.5449 10.0336 11.5214 10.2438 11.5424 10.4518L8.95627 11.679C8.71917 11.4172 8.39569 11.2495 8.04506 11.2066C7.69443 11.1638 7.34009 11.2486 7.04689 11.4456C6.7537 11.6427 6.54127 11.9387 6.44848 12.2795C6.3557 12.6204 6.38876 12.9832 6.54162 13.3017C6.69448 13.6201 6.95691 13.8729 7.28088 14.0137C7.60485 14.1545 7.96869 14.1739 8.30581 14.0684C8.64292 13.9628 8.93076 13.7394 9.11664 13.4391C9.30252 13.1387 9.374 12.7814 9.31801 12.4326L11.861 11.2268C12.1011 11.5255 12.4479 11.7191 12.8282 11.7664C13.2085 11.8138 13.5922 11.7113 13.8982 11.4807L15.9417 13.3825C15.8288 13.5934 15.7688 13.8286 15.767 14.0678C15.7652 14.307 15.8216 14.5431 15.9314 14.7556C16.0412 14.9681 16.201 15.1508 16.3972 15.2878C16.5933 15.4248 16.8198 15.512 17.0571 15.5419C17.2945 15.5719 17.5355 15.5436 17.7595 15.4596C17.9835 15.3756 18.1837 15.2384 18.3428 15.0597C18.5019 14.8811 18.6152 14.6664 18.6729 14.4343C18.7305 14.2021 18.7308 13.9594 18.6738 13.727L21.5375 11.8882C21.8 12.1259 22.1394 12.2611 22.4935 12.2691C22.8476 12.277 23.1927 12.1572 23.4656 11.9314C23.7385 11.7057 23.921 11.3893 23.9796 11.04C24.0383 10.6907 23.9692 10.332 23.785 10.0295C23.6008 9.72705 23.3138 9.50104 22.9765 9.39288C22.6393 9.28472 22.2743 9.30165 21.9486 9.44056C21.6228 9.57948 21.3579 9.83109 21.2025 10.1493C21.0471 10.4676 21.0115 10.8311 21.1022 11.1735L18.2496 13.0048C18.0314 12.7994 17.7554 12.6658 17.4589 12.6219ZM8.03565 6.66803C6.80191 6.66781 5.59567 7.03259 4.56881 7.71646C3.54195 8.40033 2.74037 9.37272 2.26497 10.5112C1.78958 11.6497 1.66164 12.9033 1.89724 14.1144C2.13285 15.3254 2.72148 16.4397 3.58902 17.3169C4.45656 18.1941 5.56424 18.795 6.77259 19.044C7.98094 19.293 9.23596 19.179 10.3796 18.7162C11.5233 18.2535 12.5045 17.4627 13.1997 16.4435C13.8949 15.4243 14.273 14.2222 14.2865 12.9885L13.7547 12.4935C13.4705 12.5906 13.17 12.6309 12.8703 12.6123C12.9466 13.7152 12.6421 14.8109 12.0077 15.7164C11.3733 16.6218 10.4474 17.2822 9.38471 17.5871C8.32202 17.892 7.18688 17.823 6.16892 17.3917C5.15096 16.9604 4.31184 16.1928 3.79172 15.2172C3.27161 14.2416 3.10202 13.1171 3.31127 12.0315C3.52052 10.9459 4.09594 9.96502 4.94141 9.25266C5.78688 8.54029 6.85119 8.13961 7.95654 8.11755C9.06189 8.09549 10.1413 8.4534 11.0146 9.13147C11.2665 8.70409 11.6486 8.36851 12.1049 8.17377C10.9727 7.20024 9.52881 6.66587 8.03565 6.66803ZM10.6745 9.93513C10.1768 9.51301 9.58535 9.21612 8.94949 9.06929C8.31362 8.92245 7.65185 8.92992 7.01947 9.09107C6.27717 9.29028 5.60818 9.6996 5.0929 10.2698C4.57763 10.8401 4.23799 11.547 4.1148 12.3056C3.99161 13.0643 4.09011 13.8423 4.39847 14.5463C4.70682 15.2503 5.21191 15.8503 5.85304 16.2742C6.49417 16.698 7.24405 16.9277 8.01258 16.9356C8.7811 16.9436 9.53557 16.7294 10.1853 16.3189C10.8351 15.9084 11.3524 15.3189 11.6752 14.6215C11.9981 13.924 12.1126 13.1481 12.0051 12.3871C11.9057 12.3392 11.8098 12.2843 11.7181 12.2228L10.156 12.9638C10.1536 12.9792 10.1515 12.9939 10.1488 13.0105C10.0749 13.5017 9.84479 13.9561 9.49249 14.3063C9.14018 14.6565 8.68445 14.8839 8.19279 14.9548C7.70114 15.0257 7.19971 14.9364 6.76279 14.7001C6.32587 14.4637 5.9767 14.0929 5.767 13.6426C5.55729 13.1923 5.49821 12.6864 5.59851 12.1999C5.6988 11.7134 5.95314 11.2721 6.32384 10.9415C6.69454 10.6108 7.1619 10.4084 7.65666 10.3641C8.15143 10.3198 8.6473 10.4361 9.07082 10.6957L10.6745 9.93513ZM21.2508 18.508H23.9193V26.2748H21.2508V18.508ZM7.40532 21.0637H10.0734V26.2748H7.40532V21.0637ZM12.0202 18.9587V26.2748H14.6886V18.9587H12.0202ZM16.6357 21.0637H19.3041V26.2748H16.6357V21.0637ZM1.08486 25.0145C1.58469 25.3011 2.17763 25.3782 2.73415 25.229C3.29067 25.0799 3.76554 24.7165 4.05503 24.2183L6.54619 19.904C5.09495 19.5894 3.77828 18.8292 2.7802 17.7297L0.289335 22.0437C0.00249642 22.5435 -0.0748411 23.1365 0.0742225 23.6932C0.223286 24.2499 0.586631 24.7249 1.08486 25.0145ZM3.07984 5.29795H11.0332C11.1445 5.29795 11.2511 5.25377 11.3297 5.17514C11.4084 5.0965 11.4526 4.98985 11.4526 4.87864C11.4526 4.76743 11.4084 4.66077 11.3297 4.58214C11.2511 4.5035 11.1445 4.45932 11.0332 4.45932H3.07984C2.96863 4.45932 2.86198 4.5035 2.78334 4.58214C2.7047 4.66077 2.66053 4.76743 2.66053 4.87864C2.66053 4.98985 2.7047 5.0965 2.78334 5.17514C2.86198 5.25377 2.96863 5.29795 3.07984 5.29795ZM3.07984 3.76358H9.09524C9.20645 3.76358 9.3131 3.7194 9.39174 3.64077C9.47038 3.56213 9.51455 3.45548 9.51455 3.34427C9.51455 3.23306 9.47038 3.1264 9.39174 3.04777C9.3131 2.96913 9.20645 2.92495 9.09524 2.92495H3.07984C2.96863 2.92495 2.86198 2.96913 2.78334 3.04777C2.7047 3.1264 2.66053 3.23306 2.66053 3.34427C2.66053 3.45548 2.7047 3.56213 2.78334 3.64077C2.86198 3.7194 2.96863 3.76358 3.07984 3.76358ZM3.07984 2.22951H5.17491C5.28611 2.22951 5.39277 2.18533 5.47141 2.1067C5.55004 2.02806 5.59422 1.92141 5.59422 1.8102C5.59422 1.69899 5.55004 1.59233 5.47141 1.5137C5.39277 1.43506 5.28611 1.39088 5.17491 1.39088H3.07984C2.96863 1.39088 2.86198 1.43506 2.78334 1.5137C2.7047 1.59233 2.66053 1.69899 2.66053 1.8102C2.66053 1.92141 2.7047 2.02806 2.78334 2.1067C2.86198 2.18533 2.96863 2.22951 3.07984 2.22951ZM12.9477 0.494978V3.76991H15.7211L12.9477 0.494978ZM7.43727 20.0373L7.32845 20.2251H10.3529C10.5011 20.2253 10.6431 20.2843 10.7479 20.389C10.8527 20.4938 10.9117 20.6358 10.9121 20.7839V21.0637H11.1834V19.3379C10.0211 19.9045 8.72721 20.1461 7.43878 20.0373H7.43727ZM16.0762 16.0802C15.8009 15.9193 15.5618 15.7034 15.3736 15.4461C15.1854 15.1887 15.0521 14.8954 14.9822 14.5844C14.6617 15.9366 13.9529 17.1657 12.9429 18.1204H14.9684C15.1166 18.1205 15.2587 18.1794 15.3636 18.2842C15.4685 18.3889 15.5275 18.531 15.5278 18.6792V21.0637H15.7991V20.7839C15.7995 20.6862 15.8255 20.5902 15.8745 20.5056C15.9234 20.421 15.9937 20.3507 16.0783 20.3016L16.0762 16.0802Z" fill="#D6E9FF"/>
</svg>
