<svg width="800" height="534" viewBox="0 0 800 534" fill="none" xmlns="http://www.w3.org/2000/svg">
<path d="M226.44 344.733C225.24 345.627 223.773 345.987 222.293 345.773C220.827 345.56 219.52 344.773 218.64 343.587C216.8 341.107 217.32 337.613 219.787 335.773C220.787 335.027 221.947 334.68 223.107 334.68C224.813 334.68 226.507 335.453 227.6 336.933C229.427 339.4 228.907 342.907 226.44 344.733ZM228.667 336.133C226.387 333.067 222.053 332.44 219 334.707C216.12 336.84 215.413 340.787 217.213 343.787L0 500.373V502.027L218.013 344.867C219.08 346.053 220.493 346.853 222.107 347.093C222.44 347.147 222.787 347.173 223.133 347.173C224.6 347.173 226.027 346.693 227.24 345.8C230.293 343.533 230.933 339.2 228.667 336.133Z" fill="#D6E9FF"/>
<path d="M184.533 352.4C184.32 353.88 183.533 355.187 182.333 356.067C179.867 357.907 176.373 357.387 174.533 354.92C173.64 353.72 173.28 352.253 173.493 350.773C173.707 349.293 174.493 348 175.693 347.107C176.667 346.387 177.813 346.013 179 346.013C179.28 346.013 179.56 346.027 179.827 346.067C181.307 346.28 182.6 347.067 183.493 348.267C184.387 349.453 184.747 350.933 184.533 352.4ZM184.56 347.467C183.467 345.987 181.853 345.013 180.027 344.747C178.2 344.48 176.373 344.933 174.893 346.04C173.413 347.133 172.44 348.747 172.173 350.573C171.933 352.173 172.293 353.76 173.107 355.133L0 479.52V481.147L173.88 356.213C175.227 357.707 177.12 358.507 179.027 358.507C180.453 358.507 181.893 358.053 183.133 357.147C184.613 356.04 185.587 354.427 185.853 352.6C186.12 350.773 185.667 348.947 184.56 347.467Z" fill="#D6E9FF"/>
<path d="M170.64 450.347C168.173 452.186 164.667 451.667 162.84 449.2C161 446.72 161.52 443.227 163.987 441.386C164.987 440.64 166.147 440.293 167.307 440.293C169.013 440.293 170.707 441.067 171.8 442.547C173.627 445.014 173.107 448.52 170.64 450.347ZM172.867 441.747C170.6 438.68 166.253 438.04 163.2 440.32C160.32 442.453 159.613 446.4 161.413 449.4L43.7995 533.333H46.1068L162.187 450.493C163.533 451.986 165.413 452.773 167.32 452.773C168.76 452.773 170.2 452.333 171.44 451.414C174.493 449.147 175.133 444.814 172.867 441.747Z" fill="#D6E9FF"/>
<path d="M218.453 508.12C218.227 509.6 217.453 510.907 216.253 511.786C215.053 512.68 213.587 513.053 212.12 512.827C210.64 512.614 209.333 511.827 208.453 510.64C207.56 509.44 207.187 507.973 207.413 506.493C207.627 505.014 208.413 503.72 209.6 502.827C210.6 502.093 211.773 501.733 212.92 501.733C214.627 501.733 216.32 502.507 217.413 503.986C218.293 505.173 218.667 506.653 218.453 508.12ZM218.48 503.186C216.213 500.12 211.867 499.48 208.813 501.76C207.333 502.853 206.36 504.467 206.093 506.293C205.853 507.893 206.213 509.48 207.027 510.84L175.507 533.333H177.827L207.827 511.92C208.893 513.107 210.307 513.907 211.92 514.147C212.267 514.2 212.6 514.227 212.947 514.227C214.413 514.227 215.84 513.76 217.053 512.853C218.533 511.76 219.493 510.147 219.773 508.32C220.04 506.493 219.587 504.667 218.48 503.186Z" fill="#D6E9FF"/>
<path d="M248.853 423.32C248.627 424.786 247.853 426.093 246.653 426.973C245.453 427.867 243.987 428.24 242.507 428.014C241.04 427.8 239.733 427.027 238.853 425.827C237.013 423.36 237.533 419.853 240 418.014C240.973 417.293 242.133 416.92 243.32 416.92C243.587 416.92 243.867 416.933 244.147 416.973C245.613 417.2 246.92 417.973 247.813 419.173C248.693 420.373 249.067 421.84 248.853 423.32ZM248.88 418.373C247.773 416.893 246.16 415.933 244.333 415.667C242.52 415.386 240.693 415.84 239.213 416.947C236.333 419.08 235.627 423.027 237.427 426.04L88.2136 533.333H90.5068L238.227 427.107C239.293 428.307 240.707 429.107 242.32 429.333C242.667 429.386 243 429.414 243.347 429.414C244.813 429.414 246.24 428.947 247.453 428.053C248.933 426.947 249.893 425.333 250.173 423.507C250.44 421.68 249.987 419.867 248.88 418.373Z" fill="#D6E9FF"/>
<path d="M93.7464 340.147C93.5193 341.627 92.7464 342.92 91.5469 343.813C89.0797 345.653 85.5729 345.133 83.7464 342.667C82.8527 341.467 82.4807 339.987 82.7073 338.52C82.9203 337.04 83.7073 335.747 84.8932 334.853C85.8672 334.133 87.026 333.747 88.2136 333.747C88.4932 333.747 88.7604 333.773 89.0407 333.813C90.5068 334.027 91.814 334.813 92.7073 336.013C93.5869 337.2 93.9593 338.68 93.7464 340.147ZM93.7735 335.213C92.6667 333.733 91.0661 332.76 89.2396 332.493C87.4131 332.227 85.5869 332.68 84.1068 333.787C82.6136 334.88 81.6536 336.493 81.3864 338.32C81.1473 339.92 81.4932 341.507 82.3203 342.867L0 401.614V403.267L83.0937 343.96C84.4401 345.453 86.3203 346.24 88.2265 346.24C89.6667 346.24 91.1068 345.8 92.3464 344.88C93.8265 343.787 94.7864 342.173 95.0661 340.347C95.3333 338.52 94.8803 336.693 93.7735 335.213Z" fill="#D6E9FF"/>
<path d="M43.8527 243.067C43.6407 244.533 42.8527 245.84 41.6536 246.733C39.186 248.56 35.6797 248.04 33.8527 245.573C32.9593 244.373 32.6005 242.907 32.814 241.427C33.026 239.96 33.814 238.653 35 237.773C35.974 237.04 37.1328 236.667 38.3203 236.667C38.6005 236.667 38.8672 236.68 39.1473 236.733C40.626 236.947 41.9203 237.72 42.814 238.92C43.7073 240.12 44.0661 241.587 43.8527 243.067ZM43.8803 238.12C42.7864 236.64 41.1735 235.68 39.3464 235.413C37.5193 235.133 35.6927 235.6 34.2136 236.693C32.7328 237.8 31.7604 239.413 31.4932 241.24C31.2536 242.84 31.6136 244.413 32.4271 245.787L0 268.933V270.56L33.2005 246.867C34.5469 248.36 36.4271 249.16 38.3464 249.16C39.7735 249.16 41.2136 248.72 42.4531 247.8C43.9339 246.693 44.9063 245.08 45.1735 243.253C45.4401 241.427 44.9869 239.613 43.8803 238.12Z" fill="#D6E9FF"/>
<path d="M138.107 274.147C137.893 275.627 137.107 276.92 135.907 277.813C133.44 279.653 129.934 279.133 128.107 276.667C127.214 275.467 126.84 273.987 127.066 272.52C127.28 271.04 128.066 269.747 129.254 268.853C130.227 268.133 131.386 267.747 132.573 267.747C132.853 267.747 133.12 267.773 133.4 267.813C134.88 268.027 136.173 268.813 137.067 270C137.96 271.2 138.32 272.68 138.107 274.147ZM138.133 269.213C137.04 267.733 135.427 266.76 133.6 266.493C131.773 266.227 129.947 266.68 128.466 267.787C126.987 268.88 126.013 270.493 125.746 272.32C125.507 273.92 125.867 275.507 126.68 276.867L0 367.96V369.613L127.453 277.96C128.799 279.453 130.68 280.24 132.601 280.24C134.027 280.24 135.467 279.8 136.707 278.88C138.187 277.787 139.16 276.173 139.427 274.347C139.693 272.52 139.24 270.693 138.133 269.213Z" fill="#D6E9FF"/>
<path d="M143.227 243.133C140.76 244.96 137.253 244.44 135.427 241.973C133.587 239.507 134.107 236 136.573 234.173C139.04 232.333 142.547 232.853 144.387 235.32C146.213 237.787 145.693 241.293 143.227 243.133ZM145.453 234.533C143.173 231.467 138.84 230.827 135.773 233.093C132.906 235.227 132.201 239.173 134 242.187L0 338.747V340.387L134.773 243.28C136.12 244.773 138 245.56 139.907 245.56C141.347 245.56 142.787 245.12 144.027 244.2C147.08 241.933 147.72 237.587 145.453 234.533Z" fill="#D6E9FF"/>
<path d="M211.2 394.947C208.733 396.787 205.227 396.267 203.4 393.8C202.507 392.6 202.133 391.12 202.36 389.653C202.573 388.173 203.36 386.88 204.547 385.987C205.547 385.24 206.72 384.893 207.867 384.893C209.573 384.893 211.267 385.667 212.36 387.147C214.187 389.613 213.68 393.12 211.2 394.947ZM213.427 386.347C211.16 383.28 206.813 382.64 203.76 384.92C202.28 386.013 201.307 387.627 201.04 389.453V389.467L185.48 388.707L0 521.84V523.493L185.88 390.067L200.973 390.8C201.04 392.16 201.493 393.467 202.333 394.587C203.68 396.413 205.773 397.373 207.88 397.373C209.32 397.373 210.76 396.933 212 396.013C215.053 393.747 215.707 389.413 213.427 386.347Z" fill="#D6E9FF"/>
<path d="M263.72 387.08C261.253 388.92 257.747 388.4 255.907 385.933C254.08 383.453 254.587 379.96 257.067 378.12C258.04 377.4 259.187 377.027 260.373 377.027C260.653 377.027 260.933 377.04 261.2 377.08C262.68 377.293 263.987 378.08 264.867 379.28C266.707 381.747 266.187 385.253 263.72 387.08ZM265.947 378.48C264.84 377 263.227 376.027 261.4 375.76C259.573 375.493 257.747 375.947 256.267 377.053C253.387 379.187 252.68 383.133 254.493 386.147L201.28 425.653L168.787 420.853L168.52 420.814L11.2542 533.333H13.5469L168.853 422.214L201.627 427.053L255.267 387.24C256.613 388.72 258.493 389.507 260.4 389.507C261.827 389.507 263.28 389.067 264.507 388.16C267.573 385.88 268.213 381.547 265.947 378.48Z" fill="#D6E9FF"/>
<path d="M303.747 441C301.28 442.84 297.773 442.32 295.933 439.853C294.107 437.373 294.627 433.88 297.093 432.04C298.067 431.32 299.213 430.933 300.413 430.933C300.68 430.933 300.96 430.96 301.24 431C302.707 431.214 304.013 432 304.893 433.2C306.733 435.667 306.213 439.16 303.747 441ZM305.973 432.4C304.867 430.92 303.253 429.947 301.427 429.68C299.6 429.414 297.787 429.867 296.293 430.973C293.427 433.107 292.72 437.053 294.52 440.067L241.307 479.573L208.813 474.773L208.547 474.733L126.641 533.333H128.934L208.88 476.133L241.667 480.973L295.293 441.147C296.64 442.64 298.52 443.427 300.427 443.427C301.867 443.427 303.307 442.986 304.547 442.067C307.6 439.8 308.24 435.453 305.973 432.4Z" fill="#D6E9FF"/>
<path d="M162.773 329.707C160.293 331.547 156.8 331.027 154.96 328.56C154.067 327.36 153.707 325.88 153.92 324.413C154.133 322.933 154.92 321.64 156.12 320.747C157.107 320 158.28 319.653 159.44 319.653C161.147 319.653 162.827 320.427 163.92 321.893C165.76 324.373 165.24 327.867 162.773 329.707ZM164.987 321.107C162.72 318.04 158.373 317.4 155.32 319.68C153.84 320.773 152.867 322.387 152.6 324.213C152.333 326.04 152.787 327.867 153.893 329.347C154.733 330.493 155.88 331.293 157.133 331.733L153.467 346.387L0 456.56V458.2L154.44 347.333L154.64 347.187L158.427 332.053C158.76 332.107 159.107 332.133 159.453 332.133C160.88 332.133 162.333 331.693 163.56 330.773C166.627 328.507 167.267 324.16 164.987 321.107Z" fill="#D6E9FF"/>
<path d="M85.9203 240.067C84.7197 240.947 83.2536 241.32 81.7735 241.107C80.3073 240.88 79 240.107 78.1068 238.907C77.2265 237.707 76.8527 236.24 77.0661 234.76C77.2927 233.293 78.0661 231.987 79.2672 231.107C80.2672 230.36 81.4271 230 82.5869 230C84.2927 230 85.974 230.787 87.0661 232.253C88.9063 234.72 88.3864 238.227 85.9203 240.067ZM88.1473 231.453C85.8672 228.4 81.5339 227.76 78.4661 230.027C76.9869 231.133 76.026 232.747 75.7464 234.573C75.4807 236.4 75.9339 238.213 77.0407 239.707C77.8672 240.827 79 241.64 80.2803 242.093L76.6136 256.747L0 311.747V313.387L77.6005 257.68L77.7864 257.547L81.5729 242.413C81.9203 242.467 82.2672 242.493 82.6005 242.493C84.0797 242.493 85.5068 242.027 86.7073 241.133C89.7735 238.853 90.4131 234.52 88.1473 231.453Z" fill="#D6E9FF"/>
<path d="M183.987 273.08C183.773 274.547 182.987 275.853 181.8 276.733C179.32 278.573 175.827 278.053 173.987 275.587C173.093 274.387 172.733 272.92 172.947 271.44C173.16 269.973 173.947 268.667 175.147 267.773C176.12 267.053 177.267 266.68 178.453 266.68C178.733 266.68 179.013 266.693 179.28 266.733C180.76 266.96 182.053 267.733 182.947 268.933C183.84 270.133 184.2 271.6 183.987 273.08ZM184.013 268.133C182.92 266.653 181.307 265.693 179.48 265.413C177.667 265.147 175.827 265.6 174.347 266.707C172.867 267.813 171.893 269.413 171.627 271.24C171.387 272.853 171.747 274.44 172.573 275.8L120.173 314.707L114.466 348.92L0 430.814V432.453L115.466 349.84L115.68 349.68L121.399 315.453L173.347 276.893C174.693 278.373 176.573 279.173 178.48 279.173C179.907 279.173 181.347 278.72 182.587 277.813C184.067 276.707 185.04 275.093 185.307 273.267C185.573 271.44 185.12 269.613 184.013 268.133Z" fill="#D6E9FF"/>
<path d="M226.44 344.733C225.24 345.627 223.773 345.987 222.293 345.773C220.827 345.56 219.52 344.773 218.64 343.587C216.8 341.107 217.32 337.613 219.787 335.773C220.787 335.027 221.947 334.68 223.107 334.68C224.813 334.68 226.507 335.453 227.6 336.933C229.427 339.4 228.907 342.907 226.44 344.733ZM228.667 336.133C226.387 333.067 222.053 332.44 219 334.707C216.12 336.84 215.413 340.787 217.213 343.787L0 500.373V502.027L218.013 344.867C219.08 346.053 220.493 346.853 222.107 347.093C222.44 347.147 222.787 347.173 223.133 347.173C224.6 347.173 226.027 346.693 227.24 345.8C230.293 343.533 230.933 339.2 228.667 336.133Z" fill="#D6E9FF"/>
<path d="M184.533 352.4C184.32 353.88 183.533 355.187 182.333 356.067C179.867 357.907 176.373 357.387 174.533 354.92C173.64 353.72 173.28 352.253 173.493 350.773C173.707 349.293 174.493 348 175.693 347.107C176.667 346.387 177.813 346.013 179 346.013C179.28 346.013 179.56 346.027 179.827 346.067C181.307 346.28 182.6 347.067 183.493 348.267C184.387 349.453 184.747 350.933 184.533 352.4ZM184.56 347.467C183.467 345.987 181.853 345.013 180.027 344.747C178.2 344.48 176.373 344.933 174.893 346.04C173.413 347.133 172.44 348.747 172.173 350.573C171.933 352.173 172.293 353.76 173.107 355.133L0 479.52V481.147L173.88 356.213C175.227 357.707 177.12 358.507 179.027 358.507C180.453 358.507 181.893 358.053 183.133 357.147C184.613 356.04 185.587 354.427 185.853 352.6C186.12 350.773 185.667 348.947 184.56 347.467Z" fill="#D6E9FF"/>
<path d="M170.64 450.347C168.173 452.186 164.667 451.667 162.84 449.2C161 446.72 161.52 443.227 163.987 441.386C164.987 440.64 166.147 440.293 167.307 440.293C169.013 440.293 170.707 441.067 171.8 442.547C173.627 445.014 173.107 448.52 170.64 450.347ZM172.867 441.747C170.6 438.68 166.253 438.04 163.2 440.32C160.32 442.453 159.613 446.4 161.413 449.4L43.7995 533.333H46.1068L162.187 450.493C163.533 451.986 165.413 452.773 167.32 452.773C168.76 452.773 170.2 452.333 171.44 451.414C174.493 449.147 175.133 444.814 172.867 441.747Z" fill="#D6E9FF"/>
<path d="M218.453 508.12C218.227 509.6 217.453 510.907 216.253 511.786C215.053 512.68 213.587 513.053 212.12 512.827C210.64 512.614 209.333 511.827 208.453 510.64C207.56 509.44 207.187 507.973 207.413 506.493C207.627 505.014 208.413 503.72 209.6 502.827C210.6 502.093 211.773 501.733 212.92 501.733C214.627 501.733 216.32 502.507 217.413 503.986C218.293 505.173 218.667 506.653 218.453 508.12ZM218.48 503.186C216.213 500.12 211.867 499.48 208.813 501.76C207.333 502.853 206.36 504.467 206.093 506.293C205.853 507.893 206.213 509.48 207.027 510.84L175.507 533.333H177.827L207.827 511.92C208.893 513.107 210.307 513.907 211.92 514.147C212.267 514.2 212.6 514.227 212.947 514.227C214.413 514.227 215.84 513.76 217.053 512.853C218.533 511.76 219.493 510.147 219.773 508.32C220.04 506.493 219.587 504.667 218.48 503.186Z" fill="#D6E9FF"/>
<path d="M248.853 423.32C248.627 424.786 247.853 426.093 246.653 426.973C245.453 427.867 243.987 428.24 242.507 428.014C241.04 427.8 239.733 427.027 238.853 425.827C237.013 423.36 237.533 419.853 240 418.014C240.973 417.293 242.133 416.92 243.32 416.92C243.587 416.92 243.867 416.933 244.147 416.973C245.613 417.2 246.92 417.973 247.813 419.173C248.693 420.373 249.067 421.84 248.853 423.32ZM248.88 418.373C247.773 416.893 246.16 415.933 244.333 415.667C242.52 415.386 240.693 415.84 239.213 416.947C236.333 419.08 235.627 423.027 237.427 426.04L88.2136 533.333H90.5068L238.227 427.107C239.293 428.307 240.707 429.107 242.32 429.333C242.667 429.386 243 429.414 243.347 429.414C244.813 429.414 246.24 428.947 247.453 428.053C248.933 426.947 249.893 425.333 250.173 423.507C250.44 421.68 249.987 419.867 248.88 418.373Z" fill="#D6E9FF"/>
<path d="M93.7464 340.147C93.5193 341.627 92.7464 342.92 91.5469 343.813C89.0797 345.653 85.5729 345.133 83.7464 342.667C82.8527 341.467 82.4807 339.987 82.7073 338.52C82.9203 337.04 83.7073 335.747 84.8932 334.853C85.8672 334.133 87.026 333.747 88.2136 333.747C88.4932 333.747 88.7604 333.773 89.0407 333.813C90.5068 334.027 91.814 334.813 92.7073 336.013C93.5869 337.2 93.9593 338.68 93.7464 340.147ZM93.7735 335.213C92.6667 333.733 91.0661 332.76 89.2396 332.493C87.4131 332.227 85.5869 332.68 84.1068 333.787C82.6136 334.88 81.6536 336.493 81.3864 338.32C81.1473 339.92 81.4932 341.507 82.3203 342.867L0 401.614V403.267L83.0937 343.96C84.4401 345.453 86.3203 346.24 88.2265 346.24C89.6667 346.24 91.1068 345.8 92.3464 344.88C93.8265 343.787 94.7864 342.173 95.0661 340.347C95.3333 338.52 94.8803 336.693 93.7735 335.213Z" fill="#D6E9FF"/>
<path d="M43.8527 243.067C43.6407 244.533 42.8527 245.84 41.6536 246.733C39.186 248.56 35.6797 248.04 33.8527 245.573C32.9593 244.373 32.6005 242.907 32.814 241.427C33.026 239.96 33.814 238.653 35 237.773C35.974 237.04 37.1328 236.667 38.3203 236.667C38.6005 236.667 38.8672 236.68 39.1473 236.733C40.626 236.947 41.9203 237.72 42.814 238.92C43.7073 240.12 44.0661 241.587 43.8527 243.067ZM43.8803 238.12C42.7864 236.64 41.1735 235.68 39.3464 235.413C37.5193 235.133 35.6927 235.6 34.2136 236.693C32.7328 237.8 31.7604 239.413 31.4932 241.24C31.2536 242.84 31.6136 244.413 32.4271 245.787L0 268.933V270.56L33.2005 246.867C34.5469 248.36 36.4271 249.16 38.3464 249.16C39.7735 249.16 41.2136 248.72 42.4531 247.8C43.9339 246.693 44.9063 245.08 45.1735 243.253C45.4401 241.427 44.9869 239.613 43.8803 238.12Z" fill="#D6E9FF"/>
<path d="M138.107 274.147C137.893 275.627 137.107 276.92 135.907 277.813C133.44 279.653 129.934 279.133 128.107 276.667C127.214 275.467 126.84 273.987 127.066 272.52C127.28 271.04 128.066 269.747 129.254 268.853C130.227 268.133 131.386 267.747 132.573 267.747C132.853 267.747 133.12 267.773 133.4 267.813C134.88 268.027 136.173 268.813 137.067 270C137.96 271.2 138.32 272.68 138.107 274.147ZM138.133 269.213C137.04 267.733 135.427 266.76 133.6 266.493C131.773 266.227 129.947 266.68 128.466 267.787C126.987 268.88 126.013 270.493 125.746 272.32C125.507 273.92 125.867 275.507 126.68 276.867L0 367.96V369.613L127.453 277.96C128.799 279.453 130.68 280.24 132.601 280.24C134.027 280.24 135.467 279.8 136.707 278.88C138.187 277.787 139.16 276.173 139.427 274.347C139.693 272.52 139.24 270.693 138.133 269.213Z" fill="#D6E9FF"/>
<path d="M143.227 243.133C140.76 244.96 137.253 244.44 135.427 241.973C133.587 239.507 134.107 236 136.573 234.173C139.04 232.333 142.547 232.853 144.387 235.32C146.213 237.787 145.693 241.293 143.227 243.133ZM145.453 234.533C143.173 231.467 138.84 230.827 135.773 233.093C132.906 235.227 132.201 239.173 134 242.187L0 338.747V340.387L134.773 243.28C136.12 244.773 138 245.56 139.907 245.56C141.347 245.56 142.787 245.12 144.027 244.2C147.08 241.933 147.72 237.587 145.453 234.533Z" fill="#D6E9FF"/>
<path d="M68.4131 199.4C65.9469 201.227 62.4401 200.707 60.6136 198.24C58.7735 195.773 59.2927 192.267 61.7604 190.44C64.2265 188.6 67.7328 189.12 69.5729 191.587C71.3995 194.053 70.8803 197.56 68.4131 199.4ZM70.6407 190.8C68.3593 187.733 64.026 187.093 60.9593 189.36C58.0937 191.493 57.3864 195.44 59.186 198.453L0 241.107V242.747L59.9593 199.547C61.3073 201.04 63.186 201.827 65.0937 201.827C66.5339 201.827 67.974 201.387 69.2136 200.467C72.2672 198.2 72.9063 193.853 70.6407 190.8Z" fill="#D6E9FF"/>
<path d="M211.2 394.947C208.733 396.787 205.227 396.267 203.4 393.8C202.507 392.6 202.133 391.12 202.36 389.653C202.573 388.173 203.36 386.88 204.547 385.987C205.547 385.24 206.72 384.893 207.867 384.893C209.573 384.893 211.267 385.667 212.36 387.147C214.187 389.613 213.68 393.12 211.2 394.947ZM213.427 386.347C211.16 383.28 206.813 382.64 203.76 384.92C202.28 386.013 201.307 387.627 201.04 389.453V389.467L185.48 388.707L0 521.84V523.493L185.88 390.067L200.973 390.8C201.04 392.16 201.493 393.467 202.333 394.587C203.68 396.413 205.773 397.373 207.88 397.373C209.32 397.373 210.76 396.933 212 396.013C215.053 393.747 215.707 389.413 213.427 386.347Z" fill="#D6E9FF"/>
<path d="M263.72 387.08C261.253 388.92 257.747 388.4 255.907 385.933C254.08 383.453 254.587 379.96 257.067 378.12C258.04 377.4 259.187 377.027 260.373 377.027C260.653 377.027 260.933 377.04 261.2 377.08C262.68 377.293 263.987 378.08 264.867 379.28C266.707 381.747 266.187 385.253 263.72 387.08ZM265.947 378.48C264.84 377 263.227 376.027 261.4 375.76C259.573 375.493 257.747 375.947 256.267 377.053C253.387 379.187 252.68 383.133 254.493 386.147L201.28 425.653L168.787 420.853L168.52 420.814L11.2542 533.333H13.5469L168.853 422.214L201.627 427.053L255.267 387.24C256.613 388.72 258.493 389.507 260.4 389.507C261.827 389.507 263.28 389.067 264.507 388.16C267.573 385.88 268.213 381.547 265.947 378.48Z" fill="#D6E9FF"/>
<path d="M303.747 441C301.28 442.84 297.773 442.32 295.933 439.853C294.107 437.373 294.627 433.88 297.093 432.04C298.067 431.32 299.213 430.933 300.413 430.933C300.68 430.933 300.96 430.96 301.24 431C302.707 431.214 304.013 432 304.893 433.2C306.733 435.667 306.213 439.16 303.747 441ZM305.973 432.4C304.867 430.92 303.253 429.947 301.427 429.68C299.6 429.414 297.787 429.867 296.293 430.973C293.427 433.107 292.72 437.053 294.52 440.067L241.307 479.573L208.813 474.773L208.547 474.733L126.641 533.333H128.934L208.88 476.133L241.667 480.973L295.293 441.147C296.64 442.64 298.52 443.427 300.427 443.427C301.867 443.427 303.307 442.986 304.547 442.067C307.6 439.8 308.24 435.453 305.973 432.4Z" fill="#D6E9FF"/>
<path d="M162.773 329.707C160.293 331.547 156.8 331.027 154.96 328.56C154.067 327.36 153.707 325.88 153.92 324.413C154.133 322.933 154.92 321.64 156.12 320.747C157.107 320 158.28 319.653 159.44 319.653C161.147 319.653 162.827 320.427 163.92 321.893C165.76 324.373 165.24 327.867 162.773 329.707ZM164.987 321.107C162.72 318.04 158.373 317.4 155.32 319.68C153.84 320.773 152.867 322.387 152.6 324.213C152.333 326.04 152.787 327.867 153.893 329.347C154.733 330.493 155.88 331.293 157.133 331.733L153.467 346.387L0 456.56V458.2L154.44 347.333L154.64 347.187L158.427 332.053C158.76 332.107 159.107 332.133 159.453 332.133C160.88 332.133 162.333 331.693 163.56 330.773C166.627 328.507 167.267 324.16 164.987 321.107Z" fill="#D6E9FF"/>
<path d="M85.9203 240.067C84.7197 240.947 83.2536 241.32 81.7735 241.107C80.3073 240.88 79 240.107 78.1068 238.907C77.2265 237.707 76.8527 236.24 77.0661 234.76C77.2927 233.293 78.0661 231.987 79.2672 231.107C80.2672 230.36 81.4271 230 82.5869 230C84.2927 230 85.974 230.787 87.0661 232.253C88.9063 234.72 88.3864 238.227 85.9203 240.067ZM88.1473 231.453C85.8672 228.4 81.5339 227.76 78.4661 230.027C76.9869 231.133 76.026 232.747 75.7464 234.573C75.4807 236.4 75.9339 238.213 77.0407 239.707C77.8672 240.827 79 241.64 80.2803 242.093L76.6136 256.747L0 311.747V313.387L77.6005 257.68L77.7864 257.547L81.5729 242.413C81.9203 242.467 82.2672 242.493 82.6005 242.493C84.0797 242.493 85.5068 242.027 86.7073 241.133C89.7735 238.853 90.4131 234.52 88.1473 231.453Z" fill="#D6E9FF"/>
<path d="M32.5869 180.013C31.3864 180.893 29.9203 181.267 28.4401 181.053C26.974 180.827 25.6667 180.053 24.7735 178.853C23.8932 177.653 23.5193 176.187 23.7328 174.707C23.9593 173.24 24.7328 171.933 25.9339 171.053C26.9339 170.307 28.0937 169.947 29.2536 169.947C30.9593 169.947 32.6407 170.733 33.7328 172.2C35.5729 174.667 35.0531 178.173 32.5869 180.013ZM34.814 171.4C32.5339 168.347 28.2005 167.707 25.1328 169.973C23.6536 171.08 22.6927 172.693 22.4131 174.52C22.1473 176.347 22.6005 178.16 23.7073 179.653C24.5339 180.773 25.6667 181.587 26.9469 182.04L23.2803 196.693L0 213.4V215.053L24.2672 197.627L24.4531 197.493L28.2396 182.36C28.5869 182.413 28.9339 182.44 29.2672 182.44C30.7464 182.44 32.1735 181.973 33.374 181.08C36.4401 178.8 37.0797 174.467 34.814 171.4Z" fill="#D6E9FF"/>
<path d="M291.08 518.773C288.613 520.6 285.107 520.08 283.28 517.614C281.44 515.147 281.96 511.64 284.427 509.814C286.893 507.973 290.4 508.493 292.24 510.96C294.067 513.427 293.547 516.933 291.08 518.773ZM293.307 510.173C291.027 507.107 286.693 506.467 283.627 508.733C280.76 510.867 280.053 514.814 281.853 517.827L260.333 533.333H262.627L282.627 518.92C283.973 520.414 285.853 521.2 287.76 521.2C289.2 521.2 290.64 520.76 291.88 519.84C294.933 517.573 295.573 513.227 293.307 510.173Z" fill="#D6E9FF"/>
<path d="M336.56 526.067C334.093 527.893 330.587 527.373 328.76 524.907C326.92 522.44 327.44 518.933 329.907 517.107C332.373 515.267 335.88 515.786 337.72 518.253C339.547 520.72 339.027 524.227 336.56 526.067ZM338.787 517.467C336.507 514.4 332.173 513.76 329.107 516.027C326.24 518.16 325.533 522.107 327.333 525.12L315.933 533.333H318.227L328.107 526.214C329.453 527.707 331.333 528.493 333.24 528.493C334.68 528.493 336.12 528.053 337.36 527.133C340.413 524.867 341.053 520.52 338.787 517.467Z" fill="#D6E9FF"/>
<path d="M255.253 499.4C254.053 500.28 252.587 500.653 251.107 500.44C249.64 500.214 248.333 499.44 247.44 498.24C246.56 497.04 246.187 495.573 246.4 494.093C246.627 492.627 247.4 491.32 248.6 490.44C249.6 489.693 250.76 489.333 251.92 489.333C253.627 489.333 255.307 490.12 256.4 491.586C258.24 494.053 257.72 497.56 255.253 499.4ZM257.48 490.786C255.2 487.733 250.867 487.093 247.8 489.36C246.32 490.467 245.36 492.08 245.08 493.907C244.813 495.733 245.267 497.547 246.373 499.04C247.2 500.16 248.333 500.973 249.613 501.427L245.947 516.08L221.907 533.333H224.2L246.933 517.014L247.12 516.88L250.907 501.747C251.253 501.8 251.6 501.827 251.933 501.827C253.413 501.827 254.84 501.36 256.04 500.467C259.107 498.186 259.747 493.853 257.48 490.786Z" fill="#D6E9FF"/>
<path d="M183.987 273.08C183.773 274.547 182.987 275.853 181.8 276.733C179.32 278.573 175.827 278.053 173.987 275.587C173.093 274.387 172.733 272.92 172.947 271.44C173.16 269.973 173.947 268.667 175.147 267.773C176.12 267.053 177.267 266.68 178.453 266.68C178.733 266.68 179.013 266.693 179.28 266.733C180.76 266.96 182.053 267.733 182.947 268.933C183.84 270.133 184.2 271.6 183.987 273.08ZM184.013 268.133C182.92 266.653 181.307 265.693 179.48 265.413C177.667 265.147 175.827 265.6 174.347 266.707C172.867 267.813 171.893 269.413 171.627 271.24C171.387 272.853 171.747 274.44 172.573 275.8L120.173 314.707L114.466 348.92L0 430.814V432.453L115.466 349.84L115.68 349.68L121.399 315.453L173.347 276.893C174.693 278.373 176.573 279.173 178.48 279.173C179.907 279.173 181.347 278.72 182.587 277.813C184.067 276.707 185.04 275.093 185.307 273.267C185.573 271.44 185.12 269.613 184.013 268.133Z" fill="#D6E9FF"/>
<path d="M573.56 188.6C574.76 187.707 576.227 187.347 577.707 187.56C579.173 187.773 580.48 188.56 581.36 189.747C583.2 192.227 582.68 195.72 580.213 197.56C579.213 198.307 578.053 198.653 576.893 198.653C575.187 198.653 573.493 197.88 572.4 196.4C570.573 193.933 571.093 190.427 573.56 188.6ZM571.333 197.2C573.613 200.267 577.947 200.893 581 198.627C583.88 196.493 584.587 192.547 582.787 189.547L800 32.96V31.3067L581.987 188.467C580.92 187.28 579.507 186.48 577.893 186.24C577.56 186.187 577.213 186.16 576.867 186.16C575.4 186.16 573.973 186.64 572.76 187.533C569.707 189.8 569.067 194.133 571.333 197.2Z" fill="#D6E9FF"/>
<path d="M615.467 180.933C615.68 179.453 616.467 178.147 617.667 177.267C620.133 175.427 623.627 175.947 625.467 178.413C626.36 179.613 626.72 181.08 626.507 182.56C626.293 184.04 625.507 185.333 624.307 186.227C623.333 186.947 622.187 187.32 621 187.32C620.72 187.32 620.44 187.307 620.173 187.267C618.693 187.053 617.4 186.267 616.507 185.067C615.613 183.88 615.253 182.4 615.467 180.933ZM615.44 185.867C616.533 187.347 618.147 188.32 619.973 188.587C621.8 188.853 623.627 188.4 625.107 187.293C626.587 186.2 627.56 184.587 627.827 182.76C628.067 181.16 627.707 179.573 626.893 178.2L800 53.8134V52.1867L626.12 177.12C624.773 175.627 622.88 174.827 620.973 174.827C619.547 174.827 618.107 175.28 616.867 176.187C615.387 177.293 614.413 178.907 614.147 180.733C613.88 182.56 614.333 184.387 615.44 185.867Z" fill="#D6E9FF"/>
<path d="M629.36 82.9867C631.827 81.1467 635.333 81.6667 637.16 84.1334C639 86.6134 638.48 90.1067 636.013 91.9467C635.013 92.6934 633.853 93.04 632.693 93.04C630.987 93.04 629.293 92.2667 628.2 90.7867C626.373 88.32 626.893 84.8134 629.36 82.9867ZM627.133 91.5867C629.4 94.6534 633.747 95.2934 636.8 93.0134C639.68 90.88 640.387 86.9334 638.587 83.9334L756.2 2.96643e-05H753.893L637.813 82.84C636.467 81.3467 634.587 80.56 632.68 80.56C631.24 80.56 629.8 81 628.56 81.92C625.507 84.1867 624.867 88.52 627.133 91.5867Z" fill="#D6E9FF"/>
<path d="M581.547 25.2133C581.773 23.7333 582.547 22.4267 583.747 21.5467C584.947 20.6533 586.413 20.28 587.88 20.5067C589.36 20.72 590.667 21.5067 591.547 22.6933C592.44 23.8933 592.813 25.36 592.587 26.84C592.373 28.32 591.587 29.6133 590.4 30.5067C589.4 31.24 588.227 31.6 587.08 31.6C585.373 31.6 583.68 30.8267 582.587 29.3467C581.707 28.16 581.333 26.68 581.547 25.2133ZM581.52 30.1467C583.787 33.2133 588.133 33.8533 591.187 31.5733C592.667 30.48 593.64 28.8667 593.907 27.04C594.147 25.44 593.787 23.8533 592.973 22.4933L624.493 -6.17468e-06H622.173L592.173 21.4133C591.107 20.2267 589.693 19.4266 588.08 19.1866C587.733 19.1333 587.4 19.1067 587.053 19.1067C585.587 19.1067 584.16 19.5733 582.947 20.48C581.467 21.5733 580.507 23.1867 580.227 25.0133C579.96 26.84 580.413 28.6667 581.52 30.1467Z" fill="#D6E9FF"/>
<path d="M551.147 110.013C551.373 108.547 552.147 107.24 553.347 106.36C554.547 105.467 556.013 105.093 557.493 105.32C558.96 105.533 560.267 106.307 561.147 107.507C562.987 109.973 562.467 113.48 560 115.32C559.027 116.04 557.867 116.413 556.68 116.413C556.413 116.413 556.133 116.4 555.853 116.36C554.387 116.133 553.08 115.36 552.187 114.16C551.307 112.96 550.933 111.493 551.147 110.013ZM551.12 114.96C552.227 116.44 553.84 117.4 555.667 117.667C557.48 117.947 559.307 117.493 560.787 116.387C563.667 114.253 564.373 110.307 562.573 107.293L711.787 1.82731e-05H709.493L561.773 106.227C560.707 105.027 559.293 104.227 557.68 104C557.333 103.947 557 103.92 556.653 103.92C555.187 103.92 553.76 104.387 552.547 105.28C551.067 106.387 550.107 108 549.827 109.827C549.56 111.653 550.013 113.467 551.12 114.96Z" fill="#D6E9FF"/>
<path d="M706.253 193.187C706.48 191.707 707.253 190.413 708.453 189.52C710.92 187.68 714.427 188.2 716.253 190.667C717.147 191.867 717.52 193.347 717.293 194.813C717.08 196.293 716.293 197.587 715.107 198.48C714.133 199.2 712.973 199.587 711.787 199.587C711.507 199.587 711.24 199.56 710.96 199.52C709.493 199.307 708.187 198.52 707.293 197.32C706.413 196.133 706.04 194.653 706.253 193.187ZM706.227 198.12C707.333 199.6 708.933 200.573 710.76 200.84C712.587 201.107 714.413 200.653 715.893 199.547C717.387 198.453 718.347 196.84 718.613 195.013C718.853 193.413 718.507 191.827 717.68 190.467L800 131.72V130.067L716.907 189.373C715.56 187.88 713.68 187.093 711.773 187.093C710.333 187.093 708.893 187.533 707.653 188.453C706.173 189.547 705.213 191.16 704.933 192.987C704.667 194.813 705.12 196.64 706.227 198.12Z" fill="#D6E9FF"/>
<path d="M756.147 290.267C756.36 288.8 757.147 287.493 758.347 286.6C760.813 284.773 764.32 285.293 766.147 287.76C767.04 288.96 767.4 290.427 767.187 291.907C766.973 293.373 766.187 294.68 765 295.56C764.027 296.293 762.867 296.667 761.68 296.667C761.4 296.667 761.133 296.653 760.853 296.6C759.373 296.387 758.08 295.613 757.187 294.413C756.293 293.213 755.933 291.747 756.147 290.267ZM756.12 295.213C757.213 296.693 758.827 297.653 760.653 297.92C762.48 298.2 764.307 297.733 765.787 296.64C767.267 295.533 768.24 293.92 768.507 292.093C768.747 290.493 768.387 288.92 767.573 287.547L800 264.4V262.773L766.8 286.467C765.453 284.973 763.573 284.173 761.653 284.173C760.227 284.173 758.787 284.613 757.547 285.533C756.067 286.64 755.093 288.253 754.827 290.08C754.56 291.907 755.013 293.72 756.12 295.213Z" fill="#D6E9FF"/>
<path d="M661.893 259.187C662.107 257.707 662.893 256.413 664.093 255.52C666.56 253.68 670.067 254.2 671.893 256.667C672.787 257.867 673.16 259.347 672.933 260.813C672.72 262.293 671.933 263.587 670.747 264.48C669.773 265.2 668.613 265.587 667.427 265.587C667.147 265.587 666.88 265.56 666.6 265.52C665.12 265.307 663.827 264.52 662.933 263.333C662.04 262.133 661.68 260.653 661.893 259.187ZM661.867 264.12C662.96 265.6 664.573 266.573 666.4 266.84C668.227 267.107 670.053 266.653 671.533 265.547C673.013 264.453 673.987 262.84 674.253 261.013C674.493 259.413 674.133 257.827 673.32 256.467L800 165.373V163.72L672.547 255.373C671.2 253.88 669.32 253.093 667.4 253.093C665.973 253.093 664.533 253.533 663.293 254.453C661.813 255.547 660.84 257.16 660.573 258.987C660.307 260.813 660.76 262.64 661.867 264.12Z" fill="#D6E9FF"/>
<path d="M656.773 290.2C659.24 288.373 662.747 288.893 664.573 291.36C666.413 293.827 665.893 297.333 663.427 299.16C660.96 301 657.453 300.48 655.613 298.013C653.787 295.547 654.307 292.04 656.773 290.2ZM654.547 298.8C656.827 301.867 661.16 302.507 664.227 300.24C667.093 298.107 667.8 294.16 666 291.147L800 194.587V192.947L665.227 290.053C663.88 288.56 662 287.773 660.093 287.773C658.653 287.773 657.213 288.213 655.973 289.133C652.92 291.4 652.28 295.747 654.547 298.8Z" fill="#D6E9FF"/>
<path d="M588.8 138.387C591.267 136.547 594.773 137.067 596.6 139.533C597.493 140.733 597.867 142.213 597.64 143.68C597.427 145.16 596.64 146.453 595.453 147.347C594.453 148.093 593.28 148.44 592.133 148.44C590.427 148.44 588.733 147.667 587.64 146.187C585.813 143.72 586.32 140.213 588.8 138.387ZM586.573 146.987C588.84 150.053 593.187 150.693 596.24 148.413C597.72 147.32 598.693 145.707 598.96 143.88V143.867L614.52 144.627L800 11.4933V9.84002L614.12 143.267L599.027 142.533C598.96 141.173 598.507 139.867 597.667 138.747C596.32 136.92 594.227 135.96 592.12 135.96C590.68 135.96 589.24 136.4 588 137.32C584.947 139.587 584.293 143.92 586.573 146.987Z" fill="#D6E9FF"/>
<path d="M536.28 146.253C538.747 144.413 542.253 144.933 544.093 147.4C545.92 149.88 545.413 153.373 542.933 155.213C541.96 155.933 540.813 156.307 539.627 156.307C539.347 156.307 539.067 156.293 538.8 156.253C537.32 156.04 536.013 155.253 535.133 154.053C533.293 151.587 533.813 148.08 536.28 146.253ZM534.053 154.853C535.16 156.333 536.773 157.307 538.6 157.573C540.427 157.84 542.253 157.387 543.733 156.28C546.613 154.147 547.32 150.2 545.507 147.187L598.72 107.68L631.213 112.48L631.48 112.52L788.747 4.60176e-05H786.453L631.147 111.12L598.373 106.28L544.733 146.093C543.387 144.613 541.507 143.827 539.6 143.827C538.173 143.827 536.72 144.267 535.493 145.173C532.427 147.453 531.787 151.787 534.053 154.853Z" fill="#D6E9FF"/>
<path d="M496.253 92.3334C498.72 90.4934 502.227 91.0134 504.067 93.48C505.893 95.96 505.373 99.4533 502.907 101.293C501.933 102.013 500.787 102.4 499.587 102.4C499.32 102.4 499.04 102.373 498.76 102.333C497.293 102.12 495.987 101.333 495.107 100.133C493.267 97.6667 493.787 94.1734 496.253 92.3334ZM494.027 100.933C495.133 102.413 496.747 103.387 498.573 103.653C500.4 103.92 502.213 103.467 503.707 102.36C506.573 100.227 507.28 96.28 505.48 93.2667L558.693 53.76L591.187 58.56L591.453 58.6L673.36 2.65277e-05H671.067L591.12 57.2L558.333 52.36L504.707 92.1867C503.36 90.6933 501.48 89.9067 499.573 89.9067C498.133 89.9067 496.693 90.3467 495.453 91.2667C492.4 93.5334 491.76 97.88 494.027 100.933Z" fill="#D6E9FF"/>
<path d="M637.227 203.627C639.707 201.787 643.2 202.307 645.04 204.773C645.933 205.973 646.293 207.453 646.08 208.92C645.867 210.4 645.08 211.693 643.88 212.587C642.893 213.333 641.72 213.68 640.56 213.68C638.853 213.68 637.173 212.907 636.08 211.44C634.24 208.96 634.76 205.467 637.227 203.627ZM635.013 212.227C637.28 215.293 641.627 215.933 644.68 213.653C646.16 212.56 647.133 210.947 647.4 209.12C647.667 207.293 647.213 205.467 646.107 203.987C645.267 202.84 644.12 202.04 642.867 201.6L646.533 186.947L800 76.7734V75.1333L645.56 186L645.36 186.147L641.573 201.28C641.24 201.227 640.893 201.2 640.547 201.2C639.12 201.2 637.667 201.64 636.44 202.56C633.373 204.827 632.733 209.173 635.013 212.227Z" fill="#D6E9FF"/>
<path d="M714.08 293.267C715.28 292.387 716.747 292.013 718.227 292.227C719.693 292.453 721 293.227 721.893 294.427C722.773 295.627 723.147 297.093 722.933 298.573C722.707 300.04 721.933 301.347 720.733 302.227C719.733 302.973 718.573 303.333 717.413 303.333C715.707 303.333 714.027 302.547 712.933 301.08C711.093 298.613 711.613 295.107 714.08 293.267ZM711.853 301.88C714.133 304.933 718.467 305.573 721.533 303.307C723.013 302.2 723.973 300.587 724.253 298.76C724.52 296.933 724.067 295.12 722.96 293.627C722.133 292.507 721 291.693 719.72 291.24L723.387 276.587L800 221.587V219.947L722.4 275.653L722.213 275.787L718.427 290.92C718.08 290.867 717.733 290.84 717.4 290.84C715.92 290.84 714.493 291.307 713.293 292.2C710.227 294.48 709.587 298.813 711.853 301.88Z" fill="#D6E9FF"/>
<path d="M616.013 260.253C616.227 258.787 617.013 257.48 618.2 256.6C620.68 254.76 624.173 255.28 626.013 257.747C626.907 258.947 627.267 260.413 627.053 261.893C626.84 263.36 626.053 264.667 624.853 265.56C623.88 266.28 622.733 266.653 621.547 266.653C621.267 266.653 620.987 266.64 620.72 266.6C619.24 266.373 617.947 265.6 617.053 264.4C616.16 263.2 615.8 261.733 616.013 260.253ZM615.987 265.2C617.08 266.68 618.693 267.64 620.52 267.92C622.333 268.187 624.173 267.733 625.653 266.627C627.133 265.52 628.107 263.92 628.373 262.093C628.613 260.48 628.253 258.893 627.427 257.533L679.827 218.627L685.533 184.413L800 102.52V100.88L684.533 183.493L684.32 183.653L678.6 217.88L626.653 256.44C625.307 254.96 623.427 254.16 621.52 254.16C620.093 254.16 618.653 254.613 617.413 255.52C615.933 256.627 614.96 258.24 614.693 260.067C614.427 261.893 614.88 263.72 615.987 265.2Z" fill="#D6E9FF"/>
<path d="M573.56 188.6C574.76 187.707 576.227 187.347 577.707 187.56C579.173 187.773 580.48 188.56 581.36 189.747C583.2 192.227 582.68 195.72 580.213 197.56C579.213 198.307 578.053 198.653 576.893 198.653C575.187 198.653 573.493 197.88 572.4 196.4C570.573 193.933 571.093 190.427 573.56 188.6ZM571.333 197.2C573.613 200.267 577.947 200.893 581 198.627C583.88 196.493 584.587 192.547 582.787 189.547L800 32.96V31.3067L581.987 188.467C580.92 187.28 579.507 186.48 577.893 186.24C577.56 186.187 577.213 186.16 576.867 186.16C575.4 186.16 573.973 186.64 572.76 187.533C569.707 189.8 569.067 194.133 571.333 197.2Z" fill="#D6E9FF"/>
<path d="M615.467 180.933C615.68 179.453 616.467 178.147 617.667 177.267C620.133 175.427 623.627 175.947 625.467 178.413C626.36 179.613 626.72 181.08 626.507 182.56C626.293 184.04 625.507 185.333 624.307 186.227C623.333 186.947 622.187 187.32 621 187.32C620.72 187.32 620.44 187.307 620.173 187.267C618.693 187.053 617.4 186.267 616.507 185.067C615.613 183.88 615.253 182.4 615.467 180.933ZM615.44 185.867C616.533 187.347 618.147 188.32 619.973 188.587C621.8 188.853 623.627 188.4 625.107 187.293C626.587 186.2 627.56 184.587 627.827 182.76C628.067 181.16 627.707 179.573 626.893 178.2L800 53.8134V52.1867L626.12 177.12C624.773 175.627 622.88 174.827 620.973 174.827C619.547 174.827 618.107 175.28 616.867 176.187C615.387 177.293 614.413 178.907 614.147 180.733C613.88 182.56 614.333 184.387 615.44 185.867Z" fill="#D6E9FF"/>
<path d="M629.36 82.9867C631.827 81.1467 635.333 81.6667 637.16 84.1334C639 86.6134 638.48 90.1067 636.013 91.9467C635.013 92.6934 633.853 93.04 632.693 93.04C630.987 93.04 629.293 92.2667 628.2 90.7867C626.373 88.32 626.893 84.8134 629.36 82.9867ZM627.133 91.5867C629.4 94.6534 633.747 95.2934 636.8 93.0134C639.68 90.88 640.387 86.9334 638.587 83.9334L756.2 2.96643e-05H753.893L637.813 82.84C636.467 81.3467 634.587 80.56 632.68 80.56C631.24 80.56 629.8 81 628.56 81.92C625.507 84.1867 624.867 88.52 627.133 91.5867Z" fill="#D6E9FF"/>
<path d="M581.547 25.2133C581.773 23.7333 582.547 22.4267 583.747 21.5467C584.947 20.6533 586.413 20.28 587.88 20.5067C589.36 20.72 590.667 21.5067 591.547 22.6933C592.44 23.8933 592.813 25.36 592.587 26.84C592.373 28.32 591.587 29.6133 590.4 30.5067C589.4 31.24 588.227 31.6 587.08 31.6C585.373 31.6 583.68 30.8267 582.587 29.3467C581.707 28.16 581.333 26.68 581.547 25.2133ZM581.52 30.1467C583.787 33.2133 588.133 33.8533 591.187 31.5733C592.667 30.48 593.64 28.8667 593.907 27.04C594.147 25.44 593.787 23.8533 592.973 22.4933L624.493 -6.17468e-06H622.173L592.173 21.4133C591.107 20.2267 589.693 19.4266 588.08 19.1866C587.733 19.1333 587.4 19.1067 587.053 19.1067C585.587 19.1067 584.16 19.5733 582.947 20.48C581.467 21.5733 580.507 23.1867 580.227 25.0133C579.96 26.84 580.413 28.6667 581.52 30.1467Z" fill="#D6E9FF"/>
<path d="M551.147 110.013C551.373 108.547 552.147 107.24 553.347 106.36C554.547 105.467 556.013 105.093 557.493 105.32C558.96 105.533 560.267 106.307 561.147 107.507C562.987 109.973 562.467 113.48 560 115.32C559.027 116.04 557.867 116.413 556.68 116.413C556.413 116.413 556.133 116.4 555.853 116.36C554.387 116.133 553.08 115.36 552.187 114.16C551.307 112.96 550.933 111.493 551.147 110.013ZM551.12 114.96C552.227 116.44 553.84 117.4 555.667 117.667C557.48 117.947 559.307 117.493 560.787 116.387C563.667 114.253 564.373 110.307 562.573 107.293L711.787 1.82731e-05H709.493L561.773 106.227C560.707 105.027 559.293 104.227 557.68 104C557.333 103.947 557 103.92 556.653 103.92C555.187 103.92 553.76 104.387 552.547 105.28C551.067 106.387 550.107 108 549.827 109.827C549.56 111.653 550.013 113.467 551.12 114.96Z" fill="#D6E9FF"/>
<path d="M706.253 193.187C706.48 191.707 707.253 190.413 708.453 189.52C710.92 187.68 714.427 188.2 716.253 190.667C717.147 191.867 717.52 193.347 717.293 194.813C717.08 196.293 716.293 197.587 715.107 198.48C714.133 199.2 712.973 199.587 711.787 199.587C711.507 199.587 711.24 199.56 710.96 199.52C709.493 199.307 708.187 198.52 707.293 197.32C706.413 196.133 706.04 194.653 706.253 193.187ZM706.227 198.12C707.333 199.6 708.933 200.573 710.76 200.84C712.587 201.107 714.413 200.653 715.893 199.547C717.387 198.453 718.347 196.84 718.613 195.013C718.853 193.413 718.507 191.827 717.68 190.467L800 131.72V130.067L716.907 189.373C715.56 187.88 713.68 187.093 711.773 187.093C710.333 187.093 708.893 187.533 707.653 188.453C706.173 189.547 705.213 191.16 704.933 192.987C704.667 194.813 705.12 196.64 706.227 198.12Z" fill="#D6E9FF"/>
<path d="M756.147 290.267C756.36 288.8 757.147 287.493 758.347 286.6C760.813 284.773 764.32 285.293 766.147 287.76C767.04 288.96 767.4 290.427 767.187 291.907C766.973 293.373 766.187 294.68 765 295.56C764.027 296.293 762.867 296.667 761.68 296.667C761.4 296.667 761.133 296.653 760.853 296.6C759.373 296.387 758.08 295.613 757.187 294.413C756.293 293.213 755.933 291.747 756.147 290.267ZM756.12 295.213C757.213 296.693 758.827 297.653 760.653 297.92C762.48 298.2 764.307 297.733 765.787 296.64C767.267 295.533 768.24 293.92 768.507 292.093C768.747 290.493 768.387 288.92 767.573 287.547L800 264.4V262.773L766.8 286.467C765.453 284.973 763.573 284.173 761.653 284.173C760.227 284.173 758.787 284.613 757.547 285.533C756.067 286.64 755.093 288.253 754.827 290.08C754.56 291.907 755.013 293.72 756.12 295.213Z" fill="#D6E9FF"/>
<path d="M661.893 259.187C662.107 257.707 662.893 256.413 664.093 255.52C666.56 253.68 670.067 254.2 671.893 256.667C672.787 257.867 673.16 259.347 672.933 260.813C672.72 262.293 671.933 263.587 670.747 264.48C669.773 265.2 668.613 265.587 667.427 265.587C667.147 265.587 666.88 265.56 666.6 265.52C665.12 265.307 663.827 264.52 662.933 263.333C662.04 262.133 661.68 260.653 661.893 259.187ZM661.867 264.12C662.96 265.6 664.573 266.573 666.4 266.84C668.227 267.107 670.053 266.653 671.533 265.547C673.013 264.453 673.987 262.84 674.253 261.013C674.493 259.413 674.133 257.827 673.32 256.467L800 165.373V163.72L672.547 255.373C671.2 253.88 669.32 253.093 667.4 253.093C665.973 253.093 664.533 253.533 663.293 254.453C661.813 255.547 660.84 257.16 660.573 258.987C660.307 260.813 660.76 262.64 661.867 264.12Z" fill="#D6E9FF"/>
<path d="M656.773 290.2C659.24 288.373 662.747 288.893 664.573 291.36C666.413 293.827 665.893 297.333 663.427 299.16C660.96 301 657.453 300.48 655.613 298.013C653.787 295.547 654.307 292.04 656.773 290.2ZM654.547 298.8C656.827 301.867 661.16 302.507 664.227 300.24C667.093 298.107 667.8 294.16 666 291.147L800 194.587V192.947L665.227 290.053C663.88 288.56 662 287.773 660.093 287.773C658.653 287.773 657.213 288.213 655.973 289.133C652.92 291.4 652.28 295.747 654.547 298.8Z" fill="#D6E9FF"/>
<path d="M731.587 333.933C734.053 332.107 737.56 332.627 739.387 335.093C741.227 337.56 740.707 341.067 738.24 342.893C735.773 344.733 732.267 344.213 730.427 341.747C728.6 339.28 729.12 335.773 731.587 333.933ZM729.36 342.533C731.64 345.6 735.973 346.24 739.04 343.973C741.907 341.84 742.613 337.893 740.813 334.88L800 292.227V290.587L740.04 333.787C738.693 332.293 736.813 331.507 734.907 331.507C733.467 331.507 732.027 331.947 730.787 332.867C727.733 335.133 727.093 339.48 729.36 342.533Z" fill="#D6E9FF"/>
<path d="M588.8 138.387C591.267 136.547 594.773 137.067 596.6 139.533C597.493 140.733 597.867 142.213 597.64 143.68C597.427 145.16 596.64 146.453 595.453 147.347C594.453 148.093 593.28 148.44 592.133 148.44C590.427 148.44 588.733 147.667 587.64 146.187C585.813 143.72 586.32 140.213 588.8 138.387ZM586.573 146.987C588.84 150.053 593.187 150.693 596.24 148.413C597.72 147.32 598.693 145.707 598.96 143.88V143.867L614.52 144.627L800 11.4933V9.84002L614.12 143.267L599.027 142.533C598.96 141.173 598.507 139.867 597.667 138.747C596.32 136.92 594.227 135.96 592.12 135.96C590.68 135.96 589.24 136.4 588 137.32C584.947 139.587 584.293 143.92 586.573 146.987Z" fill="#D6E9FF"/>
<path d="M536.28 146.253C538.747 144.413 542.253 144.933 544.093 147.4C545.92 149.88 545.413 153.373 542.933 155.213C541.96 155.933 540.813 156.307 539.627 156.307C539.347 156.307 539.067 156.293 538.8 156.253C537.32 156.04 536.013 155.253 535.133 154.053C533.293 151.587 533.813 148.08 536.28 146.253ZM534.053 154.853C535.16 156.333 536.773 157.307 538.6 157.573C540.427 157.84 542.253 157.387 543.733 156.28C546.613 154.147 547.32 150.2 545.507 147.187L598.72 107.68L631.213 112.48L631.48 112.52L788.747 4.60176e-05H786.453L631.147 111.12L598.373 106.28L544.733 146.093C543.387 144.613 541.507 143.827 539.6 143.827C538.173 143.827 536.72 144.267 535.493 145.173C532.427 147.453 531.787 151.787 534.053 154.853Z" fill="#D6E9FF"/>
<path d="M496.253 92.3334C498.72 90.4934 502.227 91.0134 504.067 93.48C505.893 95.96 505.373 99.4533 502.907 101.293C501.933 102.013 500.787 102.4 499.587 102.4C499.32 102.4 499.04 102.373 498.76 102.333C497.293 102.12 495.987 101.333 495.107 100.133C493.267 97.6667 493.787 94.1734 496.253 92.3334ZM494.027 100.933C495.133 102.413 496.747 103.387 498.573 103.653C500.4 103.92 502.213 103.467 503.707 102.36C506.573 100.227 507.28 96.28 505.48 93.2667L558.693 53.76L591.187 58.56L591.453 58.6L673.36 2.65277e-05H671.067L591.12 57.2L558.333 52.36L504.707 92.1867C503.36 90.6933 501.48 89.9067 499.573 89.9067C498.133 89.9067 496.693 90.3467 495.453 91.2667C492.4 93.5334 491.76 97.88 494.027 100.933Z" fill="#D6E9FF"/>
<path d="M637.227 203.627C639.707 201.787 643.2 202.307 645.04 204.773C645.933 205.973 646.293 207.453 646.08 208.92C645.867 210.4 645.08 211.693 643.88 212.587C642.893 213.333 641.72 213.68 640.56 213.68C638.853 213.68 637.173 212.907 636.08 211.44C634.24 208.96 634.76 205.467 637.227 203.627ZM635.013 212.227C637.28 215.293 641.627 215.933 644.68 213.653C646.16 212.56 647.133 210.947 647.4 209.12C647.667 207.293 647.213 205.467 646.107 203.987C645.267 202.84 644.12 202.04 642.867 201.6L646.533 186.947L800 76.7734V75.1333L645.56 186L645.36 186.147L641.573 201.28C641.24 201.227 640.893 201.2 640.547 201.2C639.12 201.2 637.667 201.64 636.44 202.56C633.373 204.827 632.733 209.173 635.013 212.227Z" fill="#D6E9FF"/>
<path d="M714.08 293.267C715.28 292.387 716.747 292.013 718.227 292.227C719.693 292.453 721 293.227 721.893 294.427C722.773 295.627 723.147 297.093 722.933 298.573C722.707 300.04 721.933 301.347 720.733 302.227C719.733 302.973 718.573 303.333 717.413 303.333C715.707 303.333 714.027 302.547 712.933 301.08C711.093 298.613 711.613 295.107 714.08 293.267ZM711.853 301.88C714.133 304.933 718.467 305.573 721.533 303.307C723.013 302.2 723.973 300.587 724.253 298.76C724.52 296.933 724.067 295.12 722.96 293.627C722.133 292.507 721 291.693 719.72 291.24L723.387 276.587L800 221.587V219.947L722.4 275.653L722.213 275.787L718.427 290.92C718.08 290.867 717.733 290.84 717.4 290.84C715.92 290.84 714.493 291.307 713.293 292.2C710.227 294.48 709.587 298.813 711.853 301.88Z" fill="#D6E9FF"/>
<path d="M767.413 353.32C768.613 352.44 770.08 352.067 771.56 352.28C773.027 352.507 774.333 353.28 775.227 354.48C776.107 355.68 776.48 357.147 776.267 358.627C776.04 360.093 775.267 361.4 774.067 362.28C773.067 363.027 771.907 363.387 770.747 363.387C769.04 363.387 767.36 362.6 766.267 361.133C764.427 358.667 764.947 355.16 767.413 353.32ZM765.187 361.933C767.467 364.987 771.8 365.627 774.867 363.36C776.347 362.253 777.307 360.64 777.587 358.813C777.853 356.987 777.4 355.173 776.293 353.68C775.467 352.56 774.333 351.747 773.053 351.293L776.72 336.64L800 319.933V318.28L775.733 335.707L775.547 335.84L771.76 350.973C771.413 350.92 771.067 350.893 770.733 350.893C769.253 350.893 767.827 351.36 766.627 352.253C763.56 354.533 762.92 358.867 765.187 361.933Z" fill="#D6E9FF"/>
<path d="M508.92 14.56C511.387 12.7333 514.893 13.2533 516.72 15.72C518.56 18.1867 518.04 21.6933 515.573 23.52C513.107 25.36 509.6 24.84 507.76 22.3734C505.933 19.9067 506.453 16.4 508.92 14.56ZM506.693 23.16C508.973 26.2267 513.307 26.8667 516.373 24.6C519.24 22.4667 519.947 18.52 518.147 15.5067L539.667 1.98576e-05H537.373L517.373 14.4134C516.027 12.92 514.147 12.1334 512.24 12.1334C510.8 12.1334 509.36 12.5733 508.12 13.4933C505.067 15.76 504.427 20.1067 506.693 23.16Z" fill="#D6E9FF"/>
<path d="M463.44 7.26668C465.907 5.44001 469.413 5.96001 471.24 8.42667C473.08 10.8933 472.56 14.4 470.093 16.2267C467.627 18.0667 464.12 17.5467 462.28 15.08C460.453 12.6134 460.973 9.10668 463.44 7.26668ZM461.213 15.8667C463.493 18.9333 467.827 19.5734 470.893 17.3067C473.76 15.1734 474.467 11.2267 472.667 8.21336L484.067 1.12849e-05H481.773L471.893 7.12C470.547 5.62667 468.667 4.84002 466.76 4.84002C465.32 4.84002 463.88 5.28001 462.64 6.20001C459.587 8.46668 458.947 12.8133 461.213 15.8667Z" fill="#D6E9FF"/>
<path d="M544.747 33.9333C545.947 33.0533 547.413 32.68 548.893 32.8933C550.36 33.12 551.667 33.8933 552.56 35.0933C553.44 36.2933 553.813 37.76 553.6 39.24C553.373 40.7067 552.6 42.0133 551.4 42.8933C550.4 43.64 549.24 44 548.08 44C546.373 44 544.693 43.2134 543.6 41.7467C541.76 39.28 542.28 35.7733 544.747 33.9333ZM542.52 42.5467C544.8 45.6 549.133 46.24 552.2 43.9733C553.68 42.8667 554.64 41.2533 554.92 39.4267C555.187 37.6 554.733 35.7867 553.627 34.2933C552.8 33.1733 551.667 32.36 550.387 31.9067L554.053 17.2533L578.093 6.77088e-06H575.8L553.067 16.32L552.88 16.4533L549.093 31.5867C548.747 31.5333 548.4 31.5067 548.067 31.5067C546.587 31.5067 545.16 31.9733 543.96 32.8667C540.893 35.1467 540.253 39.48 542.52 42.5467Z" fill="#D6E9FF"/>
<path d="M616.013 260.253C616.227 258.787 617.013 257.48 618.2 256.6C620.68 254.76 624.173 255.28 626.013 257.747C626.907 258.947 627.267 260.413 627.053 261.893C626.84 263.36 626.053 264.667 624.853 265.56C623.88 266.28 622.733 266.653 621.547 266.653C621.267 266.653 620.987 266.64 620.72 266.6C619.24 266.373 617.947 265.6 617.053 264.4C616.16 263.2 615.8 261.733 616.013 260.253ZM615.987 265.2C617.08 266.68 618.693 267.64 620.52 267.92C622.333 268.187 624.173 267.733 625.653 266.627C627.133 265.52 628.107 263.92 628.373 262.093C628.613 260.48 628.253 258.893 627.427 257.533L679.827 218.627L685.533 184.413L800 102.52V100.88L684.533 183.493L684.32 183.653L678.6 217.88L626.653 256.44C625.307 254.96 623.427 254.16 621.52 254.16C620.093 254.16 618.653 254.613 617.413 255.52C615.933 256.627 614.96 258.24 614.693 260.067C614.427 261.893 614.88 263.72 615.987 265.2Z" fill="#D6E9FF"/>
</svg>
