<svg width="24" height="24" viewBox="0 0 24 24" fill="none" xmlns="http://www.w3.org/2000/svg">
<path d="M11.7907 10.6124C11.9676 10.4355 11.9928 10.1323 11.816 9.93015L10.78 8.66677C10.7547 8.61623 10.7294 8.5657 10.7547 8.51516C10.8305 8.33829 10.9063 8.16142 10.9821 7.98455C11.0074 7.93401 11.0579 7.88348 11.1085 7.88348L12.7256 7.7066C12.9783 7.68134 13.1804 7.45393 13.1804 7.20125V5.81154C13.1804 5.55886 12.9783 5.33145 12.7256 5.30619L11.1085 5.12931C11.0579 5.12931 11.0074 5.07878 10.9821 5.02824C10.9316 4.85137 10.8558 4.6745 10.7547 4.49762C10.7294 4.44709 10.7294 4.37129 10.78 4.34602L11.816 3.08264C11.9928 2.8805 11.9676 2.57729 11.7907 2.40042L10.8052 1.41498C10.6284 1.23811 10.3252 1.21284 10.123 1.38972L8.85965 2.42568C8.80911 2.45095 8.75858 2.45095 8.70804 2.42568C8.53117 2.34988 8.3543 2.27408 8.17742 2.19828C8.12689 2.17301 8.07635 2.12247 8.07635 2.07194L7.89948 0.454816C7.87421 0.20214 7.64681 0 7.39413 0H6.00441C5.75174 0 5.52433 0.20214 5.49906 0.454816L5.32219 2.07194C5.32219 2.12247 5.27166 2.17301 5.22112 2.19828C5.04425 2.24881 4.86737 2.32461 4.6905 2.42568C4.63997 2.45095 4.56416 2.45095 4.5389 2.40042L3.27552 1.36445C3.07338 1.18757 2.77017 1.21284 2.5933 1.38972L1.60786 2.37515C1.43099 2.55202 1.40572 2.85523 1.58259 3.05737L2.61856 4.32075C2.64383 4.37129 2.6691 4.42182 2.64383 4.47236C2.56803 4.64923 2.49223 4.8261 2.41642 5.00298C2.39115 5.05351 2.34062 5.10405 2.29008 5.10405L0.672961 5.28092C0.420286 5.30619 0.218145 5.53359 0.218145 5.78627V7.17598C0.218145 7.42866 0.420286 7.65607 0.672961 7.68134L2.29008 7.85821C2.34062 7.85821 2.39115 7.90874 2.41642 7.95928C2.46696 8.13615 2.54276 8.31302 2.64383 8.4899C2.6691 8.54043 2.6691 8.61623 2.61856 8.6415L1.58259 9.90488C1.40572 10.107 1.43099 10.4102 1.60786 10.5871L2.5933 11.5725C2.77017 11.7494 3.07338 11.7747 3.27552 11.5978L4.5389 10.5618C4.58943 10.5366 4.63997 10.5113 4.6905 10.5366C4.86737 10.6124 5.04425 10.6882 5.22112 10.764C5.27166 10.7892 5.32219 10.8398 5.32219 10.8903L5.49906 12.5074C5.52433 12.7601 5.75174 12.9623 6.00441 12.9623H7.39413C7.64681 12.9623 7.87421 12.7601 7.89948 12.5074L8.07635 10.8903C8.07635 10.8398 8.12689 10.7892 8.17742 10.764C8.3543 10.7134 8.53117 10.6376 8.70804 10.5366C8.75858 10.5113 8.83438 10.5113 8.85965 10.5618L10.123 11.5978C10.3252 11.7747 10.6284 11.7494 10.8052 11.5725L11.7907 10.6124ZM6.71191 8.84364C5.42326 8.84364 4.36202 7.80767 4.36202 6.49376C4.36202 5.17985 5.39799 4.14388 6.71191 4.14388C8.00055 4.14388 9.06179 5.17985 9.06179 6.49376C9.06179 7.80767 8.00055 8.84364 6.71191 8.84364Z" fill="#D6E9FF"/>
<path d="M23.338 15.8933L21.7208 15.7164C21.6703 15.7164 21.6198 15.6659 21.5945 15.6153C21.544 15.4385 21.4682 15.2616 21.3671 15.0847C21.3418 15.0342 21.3418 14.9584 21.3924 14.9331L22.4283 13.6697C22.6052 13.4676 22.5799 13.1644 22.4031 12.9875L21.4176 12.0021C21.2408 11.8252 20.9375 11.7999 20.7354 11.9768L19.472 13.0128C19.4215 13.0381 19.371 13.0633 19.3204 13.0381C19.1435 12.9623 18.9667 12.8865 18.7898 12.8106C18.7393 12.7854 18.6887 12.7348 18.6887 12.6843L18.4866 11.0419C18.4613 10.7892 18.2339 10.5871 17.9812 10.5871H16.5915C16.3388 10.5871 16.1114 10.7892 16.0862 11.0419L15.9093 12.659C15.9093 12.7096 15.8588 12.7601 15.8082 12.7854C15.6314 12.8359 15.4545 12.9117 15.2776 13.0128C15.2271 13.0381 15.1513 13.0381 15.126 12.9875L13.8626 11.9516C13.6605 11.7747 13.3573 11.7999 13.1804 11.9768L12.195 12.9623C12.0181 13.1391 11.9928 13.4423 12.1697 13.6445L13.2057 14.9079C13.2309 14.9584 13.2562 15.0089 13.2309 15.0595C13.1551 15.2363 13.0793 15.4132 13.0035 15.5901C12.9783 15.6406 12.9277 15.6912 12.8772 15.6912L11.2348 15.8933C10.9821 15.9186 10.78 16.146 10.78 16.3986V17.7884C10.78 18.041 10.9821 18.2684 11.2348 18.2937L12.8519 18.4706C12.9025 18.4706 12.953 18.5211 12.9783 18.5717C13.0288 18.7485 13.1046 18.9254 13.2057 19.1023C13.2309 19.1528 13.2309 19.2286 13.1804 19.2539L12.1444 20.5173C11.9676 20.7194 11.9928 21.0226 12.1697 21.1995L13.1551 22.1849C13.332 22.3618 13.6352 22.387 13.8374 22.2102L15.1007 21.1742C15.1513 21.1489 15.2018 21.1237 15.2523 21.1489C15.4292 21.2247 15.6061 21.3005 15.783 21.3763C15.8335 21.4016 15.884 21.4522 15.884 21.5027L16.0609 23.1198C16.0862 23.3725 16.3136 23.5746 16.5663 23.5746H17.956C18.2086 23.5746 18.4361 23.3725 18.4613 23.1198L18.6382 21.5027C18.6382 21.4522 18.6887 21.4016 18.7393 21.3763C18.9161 21.3258 19.093 21.25 19.2699 21.1489C19.3204 21.1237 19.3962 21.1237 19.4215 21.1742L20.6849 22.2102C20.887 22.387 21.1902 22.3618 21.3671 22.1849L22.3525 21.1995C22.5294 21.0226 22.5547 20.7194 22.3778 20.5173L21.3418 19.2539C21.3166 19.2033 21.2913 19.1528 21.3166 19.1023C21.3924 18.9254 21.4682 18.7485 21.544 18.5717C21.5692 18.5211 21.6198 18.4706 21.6703 18.4706L23.2874 18.2937C23.5401 18.2684 23.7422 18.041 23.7422 17.7884V16.3986C23.7928 16.1207 23.5906 15.9186 23.338 15.8933ZM17.2737 19.4307C15.9851 19.4307 14.9239 18.3948 14.9239 17.0809C14.9239 15.7922 15.9598 14.731 17.2737 14.731C18.5877 14.731 19.6236 15.767 19.6236 17.0809C19.6236 18.3948 18.5877 19.4307 17.2737 19.4307Z" fill="#D6E9FF"/>
<path d="M23.9191 6.67064C23.7928 6.44323 23.5401 6.29162 23.2874 6.29162H22.3273V3.53746C22.3273 2.14774 21.1902 1.0107 19.8005 1.0107H14.3932C14.0142 1.0107 13.711 1.31391 13.711 1.69293C13.711 2.07194 14.0142 2.37515 14.3932 2.37515H19.8005C20.4322 2.37515 20.9628 2.90577 20.9628 3.53746V6.29162H20.0026C19.75 6.29162 19.4973 6.44323 19.3709 6.67064C19.2446 6.89804 19.2446 7.17599 19.3962 7.40339L21.0386 9.98068C21.1649 10.1828 21.3924 10.3092 21.645 10.3092C21.8977 10.3092 22.1251 10.1828 22.2514 9.98068L23.8686 7.40339C24.0202 7.17599 24.0454 6.89804 23.9191 6.67064Z" fill="#D6E9FF"/>
<path d="M9.59241 21.2247H4.18515C3.55347 21.2247 3.02285 20.6941 3.02285 20.0624V17.3083H3.98301C4.23569 17.3083 4.48836 17.1567 4.6147 16.9293C4.74104 16.7019 4.74104 16.4239 4.58943 16.1965L2.94704 13.6445C2.82071 13.4423 2.56803 13.316 2.34062 13.316C2.08795 13.316 1.86054 13.4423 1.7342 13.6445L0.117078 16.1965C-0.0345273 16.4239 -0.0345272 16.7019 0.0918105 16.9293C0.218148 17.1567 0.470824 17.3083 0.723499 17.3083H1.68367V20.0624C1.68367 21.4522 2.82071 22.5892 4.21042 22.5892H9.61768C9.99669 22.5892 10.2999 22.286 10.2999 21.907C10.2746 21.528 9.97142 21.2247 9.59241 21.2247Z" fill="#D6E9FF"/>
</svg>
