<svg width="25" height="24" viewBox="0 0 25 24" fill="none" xmlns="http://www.w3.org/2000/svg">
<path fillRule="evenodd" clipRule="evenodd" d="M12.1818 2C8.31176 2 5.18176 5.13 5.18176 9C5.18176 14.25 12.1818 22 12.1818 22C12.1818 22 19.1818 14.25 19.1818 9C19.1818 5.13 16.0518 2 12.1818 2ZM7.18176 9C7.18176 6.24 9.42176 4 12.1818 4C14.9418 4 17.1818 6.24 17.1818 9C17.1818 11.88 14.3018 16.19 12.1818 18.88C10.1018 16.21 7.18176 11.85 7.18176 9Z" fill="#2A8CFC"/>
<path fillRule="evenodd" clipRule="evenodd" d="M12.1818 11.5C13.5625 11.5 14.6818 10.3807 14.6818 9C14.6818 7.61929 13.5625 6.5 12.1818 6.5C10.8011 6.5 9.68176 7.61929 9.68176 9C9.68176 10.3807 10.8011 11.5 12.1818 11.5Z" fill="#2A8CFC"/>
</svg>
