<svg width="25" height="24" viewBox="0 0 25 24" fill="none" xmlns="http://www.w3.org/2000/svg">
<path fillRule="evenodd" clipRule="evenodd" d="M21.4854 11C21.0254 6.83 17.7154 3.52 13.5454 3.06V1H11.5454V3.06C7.37541 3.52 4.06541 6.83 3.60541 11H1.54541V13H3.60541C4.06541 17.17 7.37541 20.48 11.5454 20.94V23H13.5454V20.94C17.7154 20.48 21.0254 17.17 21.4854 13H23.5454V11H21.4854ZM12.5454 19C8.67541 19 5.54541 15.87 5.54541 12C5.54541 8.13 8.67541 5 12.5454 5C16.4154 5 19.5454 8.13 19.5454 12C19.5454 15.87 16.4154 19 12.5454 19Z" fill="#E6E6E6"/>
</svg>
